<?xml version="1.0" encoding="utf-8"?>
<!-- Generator: Adobe Illustrator 15.0.0, SVG Export Plug-In . SVG Version: 6.00 Build 0)  -->
<!DOCTYPE svg PUBLIC "-//W3C//DTD SVG 1.1//EN" "http://www.w3.org/Graphics/SVG/1.1/DTD/svg11.dtd">
<svg version="1.1" id="Layer_1" xmlns="http://www.w3.org/2000/svg" xmlns:xlink="http://www.w3.org/1999/xlink" x="0px" y="0px"
	 width="500px" height="500px" viewBox="0 0 500 500" enable-background="new 0 0 500 500" xml:space="preserve">
<g>
	<circle fill="#FFFFFF" cx="252.313" cy="252.313" r="247.688"/>
</g>
<path fill="#3B5BAA" d="M327.254,136.307v159.636c0,18.496-15.104,33.599-33.6,33.599h-20.999H96.221
	c-18.476,0-33.599-15.103-33.599-33.599V136.307c0-18.475,15.124-33.598,33.599-33.598h197.433
	C312.15,102.708,327.254,117.832,327.254,136.307z M160.147,329.541l-59.848,42.021v-42.021H160.147z"/>
<path fill="#6585C3" d="M454.258,240.031v110.631c0,12.779-10.479,23.279-23.281,23.279H416.42H294.182
	c-12.824,0-23.304-10.5-23.304-23.279V240.031c0-12.821,10.479-23.3,23.304-23.3h136.795
	C443.778,216.731,454.258,227.21,454.258,240.031z M420.255,373.941v29.097l-41.474-29.097H420.255z"/>
<g enable-background="new    ">
	<path fill="#FFFFFF" d="M190.122,265.626c-36.75-1.291-57.104-19.545-61.06-54.76V194.39c0-35.86,19.221-54.92,57.667-57.183
		c40.059,3.877,60.938,25.362,62.635,64.452v12.114c-1.051,14.378-5.937,26.089-14.659,35.134
		c2.502,7.432,6.542,11.146,12.115,11.146c4.522,0.324,6.784,2.344,6.784,6.058c0.646,2.423-1.858,3.635-7.511,3.635
		c-10.258,0-17.566-4.119-21.928-12.357C217.056,262.558,205.708,265.304,190.122,265.626z M198.359,148.354l-10.661-1.454
		c-20.273,2.262-32.268,20.677-35.981,55.244v11.63c1.291,22.292,10.377,35.539,27.259,39.737l10.177,1.454
		c9.771-0.322,17.888-4.441,24.351-12.357c-2.262-4.522-6.099-7.996-11.509-10.419c-3.392,0-5.088-1.856-5.088-5.572
		c0-3.877,2.826-5.331,8.48-4.362c6.542,0.163,11.589,2.505,15.144,7.027c3.069-4.361,4.604-11.952,4.604-22.776v-11.146
		C224.165,167.252,215.239,151.584,198.359,148.354z"/>
</g>
<g enable-background="new    ">
	<path fill="#FFFFFF" d="M314.477,335.695c-3.953,0-5.931-1.054-5.931-3.163c0-2.636,1.713-3.822,5.141-3.56
		c4.217,0,7.38-1.977,9.49-5.932l33.216-77.505l-2.768-3.559c5.271-0.526,9.49-2.801,12.654-6.821l36.775,86.501
		c1.053,3.56,4.085,5.867,9.095,6.92c3.954-0.263,6.063,0.924,6.327,3.56c-0.265,2.372-2.11,3.559-5.537,3.559h-31.634
		c-3.428,0-5.141-1.187-5.141-3.559c0-2.373,1.845-3.56,5.536-3.56c5.535-0.263,7.513-2.372,5.932-6.326l-10.678-24.122H339.39
		l3.163-7.908h31.635l-14.235-32.821c-1.319-2.372-2.505-2.372-3.56,0l-28.471,68.015c-0.791,2.9,2.373,4.219,9.49,3.954
		c3.69-0.263,5.536,0.924,5.536,3.56c0.263,2.372-1.714,3.294-5.931,2.768H314.477z"/>
</g>
</svg>
