<?xml version="1.0" encoding="utf-8"?>
<!-- Generator: Adobe Illustrator 15.0.0, SVG Export Plug-In . SVG Version: 6.00 Build 0)  -->
<!DOCTYPE svg PUBLIC "-//W3C//DTD SVG 1.1//EN" "http://www.w3.org/Graphics/SVG/1.1/DTD/svg11.dtd">
<svg version="1.1" id="Layer_1" xmlns="http://www.w3.org/2000/svg" xmlns:xlink="http://www.w3.org/1999/xlink" x="0px" y="0px"
	 width="500px" height="500px" viewBox="0 0 500 500" enable-background="new 0 0 500 500" xml:space="preserve">
<g>
	<circle fill="#FFFFFF" cx="252.313" cy="252.313" r="247.688"/>
</g>
<path fill="#2E3192" d="M308.332,99.613c0,30.928-25.066,56.02-56.019,56.02c-30.928,0-56.021-25.092-56.021-56.02
	c0-30.927,25.093-56.02,56.021-56.02C283.266,43.593,308.332,68.686,308.332,99.613z"/>
<path fill="#2E3192" d="M308.332,248.999c0,30.928-25.066,56.019-56.019,56.019c-30.928,0-56.021-25.091-56.021-56.019
	s25.093-56.021,56.021-56.021C283.266,192.979,308.332,218.071,308.332,248.999z"/>
<path fill="#2E3192" d="M308.332,398.383c0,30.928-25.066,56.021-56.019,56.021c-30.928,0-56.021-25.094-56.021-56.021
	c0-30.927,25.093-56.018,56.021-56.018C283.266,342.365,308.332,367.456,308.332,398.383z"/>
</svg>
