<?xml version="1.0" encoding="utf-8"?>
<!-- Generator: Adobe Illustrator 15.0.0, SVG Export Plug-In . SVG Version: 6.00 Build 0)  -->
<!DOCTYPE svg PUBLIC "-//W3C//DTD SVG 1.1//EN" "http://www.w3.org/Graphics/SVG/1.1/DTD/svg11.dtd" [
	<!ENTITY ns_flows "http://ns.adobe.com/Flows/1.0/">
	<!ENTITY ns_extend "http://ns.adobe.com/Extensibility/1.0/">
	<!ENTITY ns_ai "http://ns.adobe.com/AdobeIllustrator/10.0/">
	<!ENTITY ns_graphs "http://ns.adobe.com/Graphs/1.0/">
]>
<svg version="1.1" id="Layer_1" xmlns:x="&ns_extend;" xmlns:i="&ns_ai;" xmlns:graph="&ns_graphs;"
	 xmlns="http://www.w3.org/2000/svg" xmlns:xlink="http://www.w3.org/1999/xlink" xmlns:a="http://ns.adobe.com/AdobeSVGViewerExtensions/3.0/"
	 x="0px" y="0px" width="100px" height="100px" viewBox="0 0 100 100" enable-background="new 0 0 100 100" xml:space="preserve">
<g>
	<circle fill="#FFFFFF" cx="50.074" cy="50.088" r="48.815" style="fill:none; stroke: #fff;"/>
</g>
<g>
	<g>
		<path fill="#FFFFFF" d="M29.792,92.036c-3.879-1.837-7.451-4.214-10.716-7.122c-3.265-2.907-6.074-6.144-8.419-9.72
			c-2.349-3.572-4.159-7.499-5.433-11.787c-1.278-4.288-1.916-8.727-1.916-13.317c0-3.469,0.382-6.763,1.149-9.875
			s1.759-6.149,2.986-9.107L29.792,92.036z M49.998,3.55c6.125,0,11.888,1.074,17.298,3.218c5.409,2.14,10.204,5.103,14.391,8.876
			h-0.916c-2.247,0-4.084,0.869-5.512,2.604c-1.433,1.735-2.145,3.624-2.145,5.665c0,1.94,0.461,3.777,1.377,5.512
			c0.921,1.735,1.991,3.572,3.215,5.508c0.817,1.53,1.684,3.292,2.604,5.283c0.917,1.991,1.377,4.465,1.377,7.424
			c0,2.042-0.33,4.311-0.995,6.813c-0.665,2.503-1.559,5.28-2.68,8.341l-4.591,15.461L56.579,28.35
			c0.716-0.099,1.381-0.177,1.991-0.228c0.612-0.051,1.172-0.125,1.684-0.232c0.512-0.099,1.02-0.154,1.531-0.154
			c0.613-0.099,1.045-0.354,1.301-0.763c0.256-0.405,0.386-0.842,0.386-1.302s-0.181-0.866-0.539-1.224
			c-0.357-0.358-0.842-0.535-1.451-0.535c-1.433,0.102-2.86,0.205-4.289,0.303c-1.223,0.106-2.576,0.181-4.056,0.232
			c-1.479,0.051-2.832,0.075-4.056,0.075c-1.125,0-2.427-0.023-3.903-0.075c-1.482-0.052-2.833-0.126-4.06-0.232
			c-1.53-0.098-3.01-0.201-4.438-0.303c-0.614,0-1.098,0.177-1.456,0.535s-0.536,0.763-0.536,1.224s0.126,0.897,0.382,1.302
			c0.256,0.409,0.689,0.665,1.302,0.763c0.512,0,1.019,0.055,1.531,0.154c0.512,0.106,1.074,0.181,1.684,0.232
			c0.613,0.051,1.228,0.129,1.837,0.228l7.195,19.75L38.364,78.715L21.526,28.35c0.712-0.099,1.376-0.177,1.987-0.228
			c0.614-0.051,1.172-0.125,1.688-0.232c0.507-0.099,1.019-0.154,1.531-0.154c0.609-0.099,1.069-0.354,1.376-0.763
			c0.307-0.405,0.46-0.842,0.46-1.302s-0.181-0.866-0.539-1.224c-0.359-0.358-0.842-0.535-1.452-0.535
			c-1.53,0.102-3.014,0.205-4.441,0.303c-1.224,0.106-2.549,0.181-3.978,0.232c-1.432,0.051-2.758,0.075-3.981,0.075h-3.062
			c4.182-6.428,9.643-11.531,16.378-15.308C34.229,5.442,41.731,3.55,49.998,3.55z M49.998,96.627c-2.246,0-4.465-0.127-6.656-0.382
			c-2.199-0.255-4.316-0.739-6.354-1.456l13.777-40.568l14.392,39.191c0.098,0.103,0.149,0.204,0.149,0.307
			c0,0.104,0.103,0.15,0.307,0.15c-2.446,1.021-4.972,1.737-7.577,2.144C55.435,96.422,52.755,96.627,49.998,96.627z M91.026,27.736
			c1.731,3.27,3.135,6.763,4.208,10.488c1.071,3.726,1.606,7.68,1.606,11.865c0,8.675-2.14,16.56-6.428,23.652
			c-4.285,7.093-9.95,12.628-16.992,16.605l14.238-41.024c1.427-3.368,2.396-6.429,2.907-9.187c0.507-2.754,0.767-5.303,0.767-7.652
			c0-0.818,0-1.633,0-2.451C91.333,29.22,91.227,28.453,91.026,27.736z"/>
	</g>
</g>
</svg>
