<?xml version="1.0" encoding="utf-8"?>
<!-- Generator: Adobe Illustrator 15.0.0, SVG Export Plug-In . SVG Version: 6.00 Build 0)  -->
<!DOCTYPE svg PUBLIC "-//W3C//DTD SVG 1.1//EN" "http://www.w3.org/Graphics/SVG/1.1/DTD/svg11.dtd">
<svg version="1.1" id="Layer_1" xmlns="http://www.w3.org/2000/svg" xmlns:xlink="http://www.w3.org/1999/xlink" x="0px" y="0px"
	 width="500px" height="500px" viewBox="0 0 500 500" enable-background="new 0 0 500 500" xml:space="preserve">
<g>
	<circle fill="#FFFFFF" cx="252.313" cy="252.313" r="247.688"/>
</g>
<g>
	<g>
		<g>
			<path fill="#E14525" d="M85.121,327.847c-51.414-12.236-43.08-55.807-43.08-55.807c19.589-68.531,75.865-35.278,75.865-35.278
				c34.255-87.629,108.179-48.43,108.179-48.43c24.493-43.081,74.904-42.57,74.904-42.57c83.688-1.981,94.943,82.236,94.943,82.236
				c53.846-12.746,65.121,24.575,65.121,24.575c24.962,64.262-41.14,75.273-41.14,75.273H85.121z"/>
		</g>
		<rect x="55.013" y="226.978" fill="#FFFFFF" width="9.191" height="100.869"/>
		<rect x="79.811" y="226.978" fill="#FFFFFF" width="9.805" height="101.172"/>
		<rect x="106.569" y="201.976" fill="#FFFFFF" width="11.03" height="125.871"/>
		<rect x="132.674" y="184.573" fill="#FFFFFF" width="11.112" height="143.273"/>
		<rect x="160.087" y="176.729" fill="#FFFFFF" width="9.804" height="151.647"/>
		<rect x="187.132" y="181.958" fill="#FFFFFF" width="10.173" height="146.418"/>
		<rect x="213.604" y="168.906" fill="#FFFFFF" width="10.418" height="159.471"/>
		<rect x="242.324" y="150.624" fill="#FFFFFF" width="9.805" height="177.223"/>
	</g>
</g>
</svg>
