<?xml version="1.0" encoding="utf-8"?>
<!-- Generator: Adobe Illustrator 15.0.0, SVG Export Plug-In . SVG Version: 6.00 Build 0)  -->
<!DOCTYPE svg PUBLIC "-//W3C//DTD SVG 1.1//EN" "http://www.w3.org/Graphics/SVG/1.1/DTD/svg11.dtd">
<svg version="1.1" id="Layer_1" xmlns="http://www.w3.org/2000/svg" xmlns:xlink="http://www.w3.org/1999/xlink" x="0px" y="0px"
	 width="500px" height="500px" viewBox="0 0 500 500" enable-background="new 0 0 500 500" xml:space="preserve">
<g>
	<circle fill="#FFFFFF" cx="252.313" cy="252.313" r="247.688"/>
</g>
<path fill="#AF1F23" d="M140.194,331.745l12.108-47.686c0,0-57.362-56.366,8.085-141.834c0,0,76.368-75.142,162.43-12.722
	c0,0,60.601,38.797,32.724,138.787c0,0-12.127,53.952-58.186,67.881c0,0-76.962,15.155-54.546-58.185c0,0,3.64-24.104,15.748-49.009
	c0,0,17.588-62.497-24.829-68.551c0,0-44.257-10.307-55.159,47.266c0,0-6.648,24.849,6.667,61.826l-30.904,124.84
	c0,0-11.534,60.6,0,86.675l13.948,7.262c0,0,23.623-18.795,41.805-83.63l12.721-52.13c0,0,33.95,61.212,130.914,9.1
	c0,0,70.293-33.949,72.728-150.916c0,0-6.668-146.049-164.251-153.943c0,0-126.047-7.874-171.511,100.623
	c0,0-31.498,61.807,5.46,133.923C96.147,291.321,118.774,326.688,140.194,331.745z"/>
</svg>
