<?xml version="1.0" encoding="utf-8"?>
<!-- Generator: Adobe Illustrator 15.0.0, SVG Export Plug-In . SVG Version: 6.00 Build 0)  -->
<!DOCTYPE svg PUBLIC "-//W3C//DTD SVG 1.1//EN" "http://www.w3.org/Graphics/SVG/1.1/DTD/svg11.dtd" [
	<!ENTITY ns_flows "http://ns.adobe.com/Flows/1.0/">
	<!ENTITY ns_extend "http://ns.adobe.com/Extensibility/1.0/">
	<!ENTITY ns_ai "http://ns.adobe.com/AdobeIllustrator/10.0/">
	<!ENTITY ns_graphs "http://ns.adobe.com/Graphs/1.0/">
]>
<svg version="1.1" id="Layer_1" xmlns:x="&ns_extend;" xmlns:i="&ns_ai;" xmlns:graph="&ns_graphs;"
	 xmlns="http://www.w3.org/2000/svg" xmlns:xlink="http://www.w3.org/1999/xlink" xmlns:a="http://ns.adobe.com/AdobeSVGViewerExtensions/3.0/"
	 x="0px" y="0px" width="100px" height="100px" viewBox="0 0 100 100" enable-background="new 0 0 100 100" xml:space="preserve">
<circle fill="#C5CBDE" cx="51" cy="48.5" r="45.5"/>
<image display="none" overflow="visible" width="153" height="345" xlink:href="D8156490.jpg"  transform="matrix(1 0 0 1 -21.167 -38.3335)">
</image>
<path fill="#FFFFFF" d="M11.201,71.056c9.775,14.795,23.053,22.197,39.851,22.197c16.646,0,32.925-7.777,39.623-21.842
	C77.616,63.702,65.254,61.21,65.254,61.21c-7.277-5.984-3.479-14.624-3.479-14.624c9.225-2.586,9.565-17.5,9.565-17.5
	C70,6.5,51.714,8.085,51.714,8.085C34.199,8.585,33.702,28.96,33.702,28.96c-1.366,11.75,7.081,18,7.081,18
	c6.459,4.249,0,13.749,0,13.749C29.88,60.577,18.981,65.991,11.201,71.056z"/>
</svg>
