<?xml version="1.0" encoding="utf-8"?>
<!-- Generator: Adobe Illustrator 15.0.0, SVG Export Plug-In . SVG Version: 6.00 Build 0)  -->
<!DOCTYPE svg PUBLIC "-//W3C//DTD SVG 1.1//EN" "http://www.w3.org/Graphics/SVG/1.1/DTD/svg11.dtd">
<svg version="1.1" id="Layer_1" xmlns="http://www.w3.org/2000/svg" xmlns:xlink="http://www.w3.org/1999/xlink" x="0px" y="0px"
	 width="500px" height="500px" viewBox="0 0 500 500" enable-background="new 0 0 500 500" xml:space="preserve">
<g>
	<circle fill="#FFFFFF" cx="252.313" cy="252.313" r="247.688"/>
</g>
<rect x="85.736" y="236.69" fill="#ED1C24" width="67.746" height="160.306"/>
<path fill="#ED1C24" d="M169.575,243.421c0,0,30.093,10.915,44.095-41.484c0,0,10.354-26.427,19.178-43.018
	c0,0,6.75-12.47,23.32-24.378c0,0,16.611-6.232,22.328-46.682l2.071-29.039v-8.822c0,0,35.249-21.27,47.719,27.484
	c0,0,9.321,28.001-10.396,62.238c0,0-21.251,32.663-15.037,46.146l0.436,3.333l93.968,0.829c0,0,51.343,22.803,15.554,60.167
	c0,0-3.624,3.108,5.197,11.392c0,0,26.429,18.661-6.753,34.753c0,0-7.268,12.448,3.646,19.18c0,0,11.392,16.609-7.788,30.589
	c0,0-17.644,8.327-11.411,22.307c0,0,2.59,28.541-37.88,35.272H286.78c0,0-89.183-11.392-117.205-15.015V243.421z"/>
</svg>
