<?xml version="1.0" encoding="utf-8"?>
<!-- Generator: Adobe Illustrator 15.0.0, SVG Export Plug-In . SVG Version: 6.00 Build 0)  -->
<!DOCTYPE svg PUBLIC "-//W3C//DTD SVG 1.1//EN" "http://www.w3.org/Graphics/SVG/1.1/DTD/svg11.dtd">
<svg version="1.1" id="Layer_1" xmlns="http://www.w3.org/2000/svg" xmlns:xlink="http://www.w3.org/1999/xlink" x="0px" y="0px"
	 width="500px" height="500px" viewBox="0 0 500 500" enable-background="new 0 0 500 500" xml:space="preserve">
<g>
	<circle fill="#FFFFFF" cx="252.313" cy="252.313" r="247.688"/>
</g>
<g>
	<g>
		<path fill="#EBCD54" d="M402.989,227.553c0,73.695-75.888,133.436-169.533,133.436c-93.646,0-169.532-59.74-169.532-133.436
			c0-73.694,75.886-133.435,169.532-133.435C327.102,94.118,402.989,153.859,402.989,227.553z"/>
		<path fill="#EBCD54" d="M252.293,63.249c104.064,0,188.408,68.044,188.408,152.003c0,82.325-70.197,151.465-171.07,151.465
			c-1.941,0-3.922,0-5.882-0.078c-17.396-0.461-34.752-4.188-50.264-4.611L65.116,391.839l35.021-87.035
			c-22.758-25.12-36.213-56.068-36.213-89.552C63.924,131.292,148.248,63.249,252.293,63.249 M252.293,104.46
			c-81.151,0-147.158,49.706-147.158,110.792c0,27.833,13.878,49.016,25.545,61.893l17.318,19.105l-9.63,23.932l-6.516,16.203
			l73.501-14.762l4.575-0.922l4.671,0.113c9.515,0.271,18.702,1.403,27.621,2.5c8.054,0.998,15.646,1.961,22.604,2.151
			c1.613,0.039,3.229,0.039,4.806,0.039c74.041,0,129.86-47.399,129.86-110.254C399.491,154.166,333.445,104.46,252.293,104.46
			L252.293,104.46z"/>
	</g>
</g>
<g enable-background="new    ">
	<path fill="#FFFFFF" d="M214.316,192.187c-5.49-10.355-7.202-20.503-5.136-30.439c2.651-12.746,9.855-22.086,21.612-28.02
		c11.757-5.931,25.616-7.238,41.574-3.92c16.46,3.423,29.259,10.745,38.392,21.962c9.133,11.22,12.312,23.504,9.536,36.852
		c-1.941,9.335-5.948,17.011-12.014,23.025c-6.068,6.017-15.455,11.629-28.161,16.84l-18.182,7.372
		c-5.952,2.429-11.537,6.004-16.761,10.729c-5.223,4.725-8.091,8.816-8.598,12.269l-1.271,8.375
		c-0.193,1.427-0.906,2.587-2.138,3.481c-1.112,0.817-2.411,1.018-3.895,0.604c-2.29-0.58-4.001-2.663-5.14-6.253
		c-1.139-3.586-1.281-7.438-0.425-11.554c2.859-13.75,13.533-26.817,32.026-39.204c12.165-8.151,20.597-14.826,25.292-20.029
		c4.694-5.201,7.771-11.315,9.231-18.341c1.774-8.531,0.7-15.954-3.222-22.267c-3.925-6.313-10.001-10.326-18.23-12.037
		c-6.925-1.44-13.352-0.5-19.279,2.823s-9.526,8.047-10.799,14.168c-1.357,6.526,1.567,13.103,8.776,19.731
		c-1.027,0.415-1.604,0.663-1.724,0.741l-9.101,2.976C230.171,184.175,222.716,187.547,214.316,192.187z M241.624,281.425
		c5.421,1.127,9.64,3.995,12.662,8.602c3.02,4.608,3.968,9.621,2.841,15.041c-1.106,5.321-3.964,9.49-8.57,12.511
		c-4.609,3.022-9.621,3.968-15.042,2.841c-5.321-1.106-9.49-3.962-12.51-8.57c-3.023-4.606-3.979-9.569-2.873-14.891
		c1.127-5.42,3.992-9.639,8.602-12.661C231.34,281.276,236.303,280.318,241.624,281.425z M265.645,184.798l-3.688,1.118
		c-16.53,5.464-29.204,10.263-38.021,14.397l-1.542,0.622l-1.752-3.663l1.725-0.741c15.289-6.56,27.107-11.013,35.449-13.361
		c-7.146-6.93-9.852-14.561-8.119-22.893c0.855-4.115,3.237-7.259,7.144-9.431c3.908-2.172,8.319-2.746,13.239-1.724
		c9.534,1.983,15.532,8.884,17.997,20.706l-0.903-0.188c-4.433-9.403-10.563-14.919-18.392-16.547
		c-8.634-1.795-13.752,1.173-15.358,8.901C251.69,170.327,255.764,177.928,265.645,184.798z M264.851,292.852
		c4.556,6.287,6.03,13.297,4.423,21.024c-1.42,6.827-5.196,12.271-11.328,16.335c-6.134,4.065-12.613,5.388-19.438,3.969
		c-8.032-1.671-13.93-6.038-17.695-13.104l1.124-0.866c5.628,5.151,11.103,8.278,16.425,9.385
		c6.222,1.294,12.047,0.227,17.471-3.199c5.425-3.428,8.763-8.152,10.015-14.175c1.169-5.619,0.36-11.809-2.422-18.565
		L264.851,292.852z M318.849,148.741c12.501,13.909,17.008,29.245,13.522,46.006c-2.317,11.141-8.08,20.729-17.289,28.76
		c-4.738,4.146-17.354,10.947-37.854,20.401l-9.716,4.419c-11.823,5.5-18.445,11.663-19.864,18.487
		c-0.731,3.515-0.232,7.911,1.497,13.19l-5.108-2.632c-1.075-3.888-1.227-7.689-0.455-11.404c1.106-5.318,3.925-9.81,8.457-13.477
		c4.531-3.664,12.253-7.818,23.166-12.46c18.455-7.68,31.535-14.934,39.237-21.762c7.702-6.826,12.649-15.511,14.841-26.05
		c1.607-7.728,1.343-15.4-0.789-23.018c-2.135-7.615-5.805-14.008-11.014-19.175L318.849,148.741z"/>
</g>
</svg>
