<?xml version="1.0" encoding="utf-8"?>
<!-- Generator: Adobe Illustrator 15.0.0, SVG Export Plug-In . SVG Version: 6.00 Build 0)  -->
<!DOCTYPE svg PUBLIC "-//W3C//DTD SVG 1.1//EN" "http://www.w3.org/Graphics/SVG/1.1/DTD/svg11.dtd">
<svg version="1.1" id="Layer_1" xmlns="http://www.w3.org/2000/svg" xmlns:xlink="http://www.w3.org/1999/xlink" x="0px" y="0px"
	 width="500px" height="500px" viewBox="0 0 500 500" enable-background="new 0 0 500 500" xml:space="preserve">
<g>
	<circle fill="#FFFFFF" cx="252.313" cy="252.313" r="247.688"/>
</g>
<path fill="#2CA8D2" d="M176.784,129.918h196.666c0,0,39.791,2.748,46.988,51.369v117.127h40.313l-64.647,72.933l-63.513-72.933
	h39.769V187.393c0,0,4.403-8.307-10.487-9.42c-14.936-1.09-143.641,0-143.641,0L176.784,129.918z"/>
<path fill="#2CA8D2" d="M331.864,371.551h-196.71c0,0-39.769-2.769-46.942-51.392V203.032H47.875l64.647-72.908l63.536,72.908
	h-39.769v111.046c0,0-4.427,8.284,10.487,9.419c14.891,1.089,143.642,0,143.642,0L331.864,371.551z"/>
</svg>
