<?xml version="1.0" encoding="utf-8"?>
<!-- Generator: Adobe Illustrator 15.0.0, SVG Export Plug-In . SVG Version: 6.00 Build 0)  -->
<!DOCTYPE svg PUBLIC "-//W3C//DTD SVG 1.1//EN" "http://www.w3.org/Graphics/SVG/1.1/DTD/svg11.dtd">
<svg version="1.1" id="Layer_1" xmlns="http://www.w3.org/2000/svg" xmlns:xlink="http://www.w3.org/1999/xlink" x="0px" y="0px"
	 width="500px" height="500px" viewBox="0 0 500 500" enable-background="new 0 0 500 500" xml:space="preserve">
<rect x="68.409" y="270.787" fill="#297DB9" width="36.021" height="178.596"/>
<path fill="#297DB9" d="M103.317,270.691c0,0,36.896,13.383,54.063-50.861c0,0,12.694-32.401,23.513-52.743
	c0,0,8.276-15.289,28.592-29.888c0,0,20.366-7.641,27.375-57.235l2.539-35.604V33.545c0,0,43.218-26.078,58.508,33.697
	c0,0,11.427,34.331-12.747,76.307c0,0-26.056,40.046-18.437,56.578l0.537,4.086l115.208,1.016c0,0,62.95,27.958,19.07,73.769
	c0,0-4.441,3.81,6.372,13.967c0,0,32.404,22.88-8.28,42.608c0,0-8.91,15.263,4.471,23.516c0,0,13.968,20.364-9.548,37.505
	c0,0-21.635,10.208-13.991,27.351c0,0,3.175,34.992-46.441,43.243h-87.105c0,0-109.341-13.967-143.697-18.409L103.317,270.691
	L103.317,270.691z"/>
</svg>
