<?xml version="1.0" encoding="utf-8"?>
<!-- Generator: Adobe Illustrator 15.0.0, SVG Export Plug-In . SVG Version: 6.00 Build 0)  -->
<!DOCTYPE svg PUBLIC "-//W3C//DTD SVG 1.1//EN" "http://www.w3.org/Graphics/SVG/1.1/DTD/svg11.dtd" [
	<!ENTITY ns_flows "http://ns.adobe.com/Flows/1.0/">
	<!ENTITY ns_extend "http://ns.adobe.com/Extensibility/1.0/">
	<!ENTITY ns_ai "http://ns.adobe.com/AdobeIllustrator/10.0/">
	<!ENTITY ns_graphs "http://ns.adobe.com/Graphs/1.0/">
]>
<svg version="1.1" id="Layer_1" xmlns:x="&ns_extend;" xmlns:i="&ns_ai;" xmlns:graph="&ns_graphs;"
	 xmlns="http://www.w3.org/2000/svg" xmlns:xlink="http://www.w3.org/1999/xlink" xmlns:a="http://ns.adobe.com/AdobeSVGViewerExtensions/3.0/"
	 x="0px" y="0px" width="500px" height="500px" viewBox="0 0 500 500" enable-background="new 0 0 500 500" xml:space="preserve">
<g>
	<path fill="#595858" d="M197.664,282.586c-7.896-5.054-18.765-10.522-33.745-16.079c0,0-28.838-5.595-25.458-25.177
		c0,0,8.823-5.081,16.828-16.655c-0.894-2.696-1.215-4.238-1.215-4.238c-38.643-30.043-7.495-60.129-7.495-60.129
		c-2.737-22.781-2.033-39.368,0.382-51.449c-9.182-4.546-25.311-10.081-46.012-7.256c0,0-22.719,3.903-27.27,18.18
		c0,0-20.118,1.951-14.271,50.624c0,0-18.834,18.193,4.533,36.36c0,0,3.896,18.836,25.973,35.731c0,0,7.145,14.908-38.954,29.209
		c0,0-45.443,16.031-42.85,47.6c-0.002-0.003-2.594,26.402,24.675,29.638h60.969c18.798-14.036,38.853-21.112,38.853-21.112
		C192.744,309.174,198.087,289.896,197.664,282.586z"/>
	<path fill="#595858" d="M489.698,303.563c0,0,3.235-20.131-54.53-41.561c0,0-28.838-5.594-25.458-25.176
		c0,0,18.311-10.53,26.104-35.848c0,0,22.068-9.104,4.544-35.076c0,0,4.547-40.878-13.635-56.452c0,0-21.413-16.87-54.526-12.352
		c0,0-8.364,1.442-15.959,5.763c6.597,27.589,3.28,57.445,3.28,57.445c28.982,42.951-7.514,58.006-7.514,58.006
		c-0.903,2.935-1.899,5.735-2.958,8.432c3.256,3.696,7.24,7.52,12.114,11.25c0,0,7.145,14.907-38.952,29.21
		c0,0-0.109,0.038-0.311,0.113c-7.434,7.034-13.063,10.278-13.063,10.278c-5.59,32.385,42.102,41.636,42.102,41.636
		c23.413,8.685,40.755,17.24,53.611,25.209h66.972C471.52,344.44,496.836,345.106,489.698,303.563z"/>
	<path fill="#595858" stroke="#FFFFFF" stroke-width="0.25" stroke-miterlimit="10" d="M119.366,455.406h276.975
		c0,0,41.868,1.102,30.064-67.601c0,0,5.35-33.293-90.178-68.729c0,0-47.691-9.251-42.102-41.635c0,0,30.279-17.414,43.17-59.284
		c0,0,36.496-15.055,7.514-58.006c0,0,7.519-67.602-22.548-93.356c0,0-35.411-27.898-90.172-20.426c0,0-37.57,6.455-45.097,30.065
		c0,0-33.269,3.227-23.599,83.718c0,0-31.147,30.086,7.495,60.129c0,0,6.443,31.149,42.952,59.09c0,0,11.815,24.652-64.419,48.305
		c0,0-75.151,26.511-70.861,78.714C78.558,406.389,74.271,450.056,119.366,455.406z"/>
</g>
</svg>
