<?xml version="1.0" encoding="utf-8"?>
<!-- Generator: Adobe Illustrator 15.0.0, SVG Export Plug-In . SVG Version: 6.00 Build 0)  -->
<!DOCTYPE svg PUBLIC "-//W3C//DTD SVG 1.1//EN" "http://www.w3.org/Graphics/SVG/1.1/DTD/svg11.dtd">
<svg version="1.1" id="Layer_1" xmlns="http://www.w3.org/2000/svg" xmlns:xlink="http://www.w3.org/1999/xlink" x="0px" y="0px"
	 width="100px" height="100px" viewBox="0 0 100 100" enable-background="new 0 0 100 100" xml:space="preserve">
<path fill="#FFFFFF" d="M15.544,93.636c0,0,13.226-64.729,76.563-90.136c0,0-0.348,8.352-18.793,18.444c0,0-7.135,6.96,15.053,2.088
	c0,0-6.352,8.004-17.836,10.092c0,0-17.75,8.353-4.352,8.004c0,0,18.969-2.087-2.957,8.352c0,0-2.089,2.088-15.662,3.829
	c0,0-19.488,15.659-27.145,34.801C20.417,89.111,13.856,99.943,15.544,93.636z"/>
<polyline fill="#FFFFFF" points="7.975,60.313 15.806,60.313 15.806,24.033 36.165,24.033 36.165,16.724 7.975,16.724 "/>
<polyline fill="#FFFFFF" points="43.995,85.37 43.995,78.063 81.318,78.063 81.318,56.659 88.367,56.659 88.367,85.37 "/>
</svg>
