<?xml version="1.0" encoding="utf-8"?>
<!-- Generator: Adobe Illustrator 15.0.0, SVG Export Plug-In . SVG Version: 6.00 Build 0)  -->
<!DOCTYPE svg PUBLIC "-//W3C//DTD SVG 1.1//EN" "http://www.w3.org/Graphics/SVG/1.1/DTD/svg11.dtd" [
	<!ENTITY ns_flows "http://ns.adobe.com/Flows/1.0/">
	<!ENTITY ns_extend "http://ns.adobe.com/Extensibility/1.0/">
	<!ENTITY ns_ai "http://ns.adobe.com/AdobeIllustrator/10.0/">
	<!ENTITY ns_graphs "http://ns.adobe.com/Graphs/1.0/">
]>
<svg version="1.1" id="Layer_1" xmlns:x="&ns_extend;" xmlns:i="&ns_ai;" xmlns:graph="&ns_graphs;"
	 xmlns="http://www.w3.org/2000/svg" xmlns:xlink="http://www.w3.org/1999/xlink" xmlns:a="http://ns.adobe.com/AdobeSVGViewerExtensions/3.0/"
	 x="0px" y="0px" width="100px" height="100px" viewBox="0 0 100 100" enable-background="new 0 0 100 100" xml:space="preserve">
<g enable-background="new    ">
	<path fill="#FFFFFF" d="M52.256,68.766H41.693l-3.391,22.913c-0.521,3.112-2.608,5.517-6.129,5.517
		c-3.782,0-6.259-2.971-6.259-6.789c0-0.566,0.13-1.415,0.261-2.264l2.869-19.377H24.87c-3.26,0-5.868-2.829-5.868-6.365
		s2.608-6.364,5.868-6.364h5.999l1.956-13.437H28c-3.26,0-5.868-2.829-5.868-6.365c0-3.536,2.608-6.365,5.868-6.365h6.651
		L37.78,8.936c0.521-3.253,3.13-5.516,6.26-5.516c3.521,0,6.26,2.829,6.26,6.506c0,0,0,0.566-0.13,1.697L47.431,29.87h10.433
		l3.13-20.934c0.521-3.253,3.13-5.516,6.26-5.516c3.521,0,6.26,2.829,6.26,6.506c0,0,0,0.566-0.13,1.697L70.644,29.87H75.6
		c3.26,0,5.868,2.829,5.868,6.365s-2.608,6.365-5.868,6.365h-6.781l-2.087,13.437h5.738c3.26,0,5.868,2.828,5.868,6.364
		s-2.608,6.365-5.868,6.365h-7.564l-3.391,22.913c-0.521,3.112-2.608,5.517-6.129,5.517c-3.782,0-6.26-2.971-6.26-6.789
		c0-0.566,0.131-1.415,0.261-2.264L52.256,68.766z M43.519,56.036h10.563L56.037,42.6H45.605L43.519,56.036z"/>
</g>
</svg>
