<?xml version="1.0" encoding="utf-8"?>
<!-- Generator: Adobe Illustrator 15.0.0, SVG Export Plug-In . SVG Version: 6.00 Build 0)  -->
<!DOCTYPE svg PUBLIC "-//W3C//DTD SVG 1.1//EN" "http://www.w3.org/Graphics/SVG/1.1/DTD/svg11.dtd" [
	<!ENTITY ns_flows "http://ns.adobe.com/Flows/1.0/">
	<!ENTITY ns_extend "http://ns.adobe.com/Extensibility/1.0/">
	<!ENTITY ns_ai "http://ns.adobe.com/AdobeIllustrator/10.0/">
	<!ENTITY ns_graphs "http://ns.adobe.com/Graphs/1.0/">
]>
<svg version="1.1" id="Layer_1" xmlns:x="&ns_extend;" xmlns:i="&ns_ai;" xmlns:graph="&ns_graphs;"
	 xmlns="http://www.w3.org/2000/svg" xmlns:xlink="http://www.w3.org/1999/xlink" xmlns:a="http://ns.adobe.com/AdobeSVGViewerExtensions/3.0/"
	 x="0px" y="0px" width="100px" height="100px" viewBox="0 0 100 100" enable-background="new 0 0 100 100" xml:space="preserve">
<path display="none" d="M33.333,59.5c0,0-9-9.5-9.667-14.167c0,0-6.333-4.667-2-9.333c0,0,0.999-20.333,18.333-18.333
	c0,0,14-1,19,17.667c0,0,3.667,6.333-3.333,12l-2,2.667C53.667,50,45.667,70.666,33.333,59.5z"/>
<image display="none" overflow="visible" width="158" height="155" xlink:href="2AF09991.jpg"  transform="matrix(1 0 0 1 -20 -18)">
</image>
<path fill="#FFFFFF" d="M1.386,87.334c0,0-2.903-22.135,25.038-22.86c0,0,11.249,26.126,27.578,0c0,0,22.498-2.178,24.675,22.86
	H1.386z"/>
<g>
	<path fill="#FFFFFF" d="M80.086,35.493c0-2.038,0.892-3.184,3.184-3.184c2.293,0,3.186,1.146,3.186,3.184v9.489h9.361
		c1.655,0,3.184,0.892,3.184,3.185c0,2.292-1.528,3.184-3.184,3.184h-9.361v9.361c0,2.038-0.893,3.185-3.186,3.185
		c-2.292,0-3.184-1.146-3.184-3.185v-9.361h-9.361c-1.656,0-3.186-0.892-3.186-3.184c0-2.293,1.529-3.185,3.186-3.185h9.361V35.493z
		"/>
</g>
<path fill="#FFFFFF" d="M22.251,35.988c0,0-1.899-19.051,17.738-22.316c0,0,18.549-2.359,19.457,22.316c0,0,4.172,5.987-1.271,10.16
	c0,0-3.532,17.237-18.186,19.232c0,0-11.75,0.183-16.105-19.413C23.884,45.967,17.896,42.52,22.251,35.988z"/>
</svg>
