<?xml version="1.0" encoding="utf-8"?>
<!-- Generator: Adobe Illustrator 15.0.0, SVG Export Plug-In . SVG Version: 6.00 Build 0)  -->
<!DOCTYPE svg PUBLIC "-//W3C//DTD SVG 1.1//EN" "http://www.w3.org/Graphics/SVG/1.1/DTD/svg11.dtd">
<svg version="1.1" id="Layer_1" xmlns="http://www.w3.org/2000/svg" xmlns:xlink="http://www.w3.org/1999/xlink" x="0px" y="0px"
	 width="500px" height="500px" viewBox="0 0 500 500" enable-background="new 0 0 500 500" xml:space="preserve">
<g id="visit_our_facebook">
	<g>
		<path fill="#FFFFFF" d="M500,252.74C500,389.299,389.3,500,252.742,500C116.182,500,5.481,389.299,5.481,252.74
			c0-136.559,110.701-247.26,247.261-247.26C389.3,5.48,500,116.182,500,252.74z"/>
	</g>
	<g enable-background="new    ">
		<path fill="#315A91" d="M192.788,218.377v-34.078c0-12.531,2.148-24.282,6.463-35.253c4.306-10.962,10.181-20.463,17.626-28.496
			c7.437-8.023,16.158-14.395,26.146-19.096c9.988-4.7,20.656-7.05,32.021-7.05h55.229v67.567h-55.229
			c-3.14,0-6.17,2.057-9.107,6.17c-2.938,4.112-4.406,9.106-4.406,14.982v35.253h68.743v68.742h-68.743v166.864h-68.743V287.119
			h-55.229v-68.742H192.788z"/>
	</g>
</g>
</svg>
