<?xml version="1.0" encoding="utf-8"?>
<!-- Generator: Adobe Illustrator 15.0.0, SVG Export Plug-In . SVG Version: 6.00 Build 0)  -->
<!DOCTYPE svg PUBLIC "-//W3C//DTD SVG 1.1//EN" "http://www.w3.org/Graphics/SVG/1.1/DTD/svg11.dtd">
<svg version="1.1" id="Layer_1" xmlns="http://www.w3.org/2000/svg" xmlns:xlink="http://www.w3.org/1999/xlink" x="0px" y="0px"
	 width="500px" height="500px" viewBox="0 0 500 500" enable-background="new 0 0 500 500" xml:space="preserve">
<g>
	<circle fill="#FFFFFF" cx="252.313" cy="252.313" r="247.688"/>
</g>
<g>
	<path fill="#9ACA3C" d="M404.024,306.155c0,22.165-17.973,40.116-40.117,40.116H138.135c-22.185,0-40.159-17.951-40.159-40.116
		V127.192c0-22.165,17.974-40.139,40.159-40.139h225.772c22.145,0,40.117,17.975,40.117,40.139V306.155z"/>
	<path fill="#9ACA3C" d="M367.62,405.654c0,14.324-11.614,25.918-25.94,25.918H160.32c-14.303,0-25.896-11.594-25.896-25.918l0,0
		c0-14.323,11.593-25.917,25.896-25.917h181.36C356.006,379.737,367.62,391.331,367.62,405.654L367.62,405.654z"/>
	<path fill="#9ACA3C" d="M286.135,376.38c0,19.412-15.723,35.135-35.113,35.135l0,0c-19.391,0-35.133-15.723-35.133-35.135v-31.755
		c0-19.413,15.742-35.134,35.133-35.134l0,0c19.391,0,35.113,15.721,35.113,35.134V376.38z"/>
	<rect x="128.877" y="115.494" fill="#FFFFFF" width="248.25" height="193.998"/>
</g>
</svg>
