<?xml version="1.0" encoding="utf-8"?>
<!-- Generator: Adobe Illustrator 15.0.0, SVG Export Plug-In . SVG Version: 6.00 Build 0)  -->
<!DOCTYPE svg PUBLIC "-//W3C//DTD SVG 1.1//EN" "http://www.w3.org/Graphics/SVG/1.1/DTD/svg11.dtd">
<svg version="1.1" id="Layer_1" xmlns="http://www.w3.org/2000/svg" xmlns:xlink="http://www.w3.org/1999/xlink" x="0px" y="0px"
	 width="500px" height="500px" viewBox="0 0 500 500" enable-background="new 0 0 500 500" xml:space="preserve">
<path fill="#595858" d="M299.091,161.047c0,7.148-5.789,12.893-12.914,12.893H62.875c-7.125,0-12.893-5.744-12.893-12.893l0,0
	c0-7.124,5.767-12.892,12.893-12.892h223.302C293.299,148.156,299.091,153.923,299.091,161.047L299.091,161.047z"/>
<path fill="#595858" d="M299.091,222.938c0,7.148-5.761,12.916-12.859,12.916H62.869c-7.113,0-12.886-5.768-12.886-12.916l0,0
	c0-7.125,5.772-12.892,12.886-12.892h223.363C293.33,210.045,299.091,215.813,299.091,222.938L299.091,222.938z"/>
<path fill="#595858" d="M299.091,284.827c0,7.146-5.769,12.893-12.874,12.893H62.877c-7.128,0-12.894-5.746-12.894-12.893l0,0
	c0-7.123,5.766-12.893,12.894-12.893h223.34C293.322,271.935,299.091,277.704,299.091,284.827L299.091,284.827z"/>
<path fill="#595858" d="M299.091,346.72c0,7.146-5.777,12.891-12.892,12.891H62.875c-7.114,0-12.893-5.745-12.893-12.891l0,0
	c0-7.125,5.779-12.896,12.893-12.896h223.325C293.313,333.822,299.091,339.593,299.091,346.72L299.091,346.72z"/>
<g id="Notepad">
	<path fill="#545554" d="M474.827,81.648l-45.514-50.695c-11.065-12.341-28.959-12.558-39.791-0.51c0,0.016-0.018,0.031-0.032,0.046
		l-0.006-0.016L223.546,215.296l-3.35,3.681l-28.727,127.741l114.58-32.011l10.691-12.125l0,0l158.526-176.611h-0.007
		c0-0.016,0.015-0.016,0.021-0.03C486.087,113.908,485.871,93.957,474.827,81.648z M231.964,231.86l62.643,69.747l-58.804,16.409
		l-18.355-21.528L231.964,231.86z M231.964,231.86"/>
	<polygon fill="#FFFFFF" points="231,230 294.606,301.607 232.667,318.667 216.667,300 	"/>
	<path fill="#FFFFFF" d="M387.667,216.333"/>
</g>
<polygon fill="none" stroke="#595858" stroke-width="18" stroke-miterlimit="10" points="10.464,473.685 10.464,10.744 
	257.774,10.744 379.184,141.376 379.184,494.707 10.465,494.707 "/>
<polygon fill="none" stroke="#595858" stroke-width="17" stroke-miterlimit="10" points="268.798,25.979 268.798,132.202 
	369.03,132.202 369.03,127.934 "/>
</svg>
