<?xml version="1.0" encoding="utf-8"?>
<!-- Generator: Adobe Illustrator 15.0.0, SVG Export Plug-In . SVG Version: 6.00 Build 0)  -->
<!DOCTYPE svg PUBLIC "-//W3C//DTD SVG 1.1//EN" "http://www.w3.org/Graphics/SVG/1.1/DTD/svg11.dtd">
<svg version="1.1" id="Layer_1" xmlns="http://www.w3.org/2000/svg" xmlns:xlink="http://www.w3.org/1999/xlink" x="0px" y="0px"
	 width="500px" height="500px" viewBox="0 0 500 500" enable-background="new 0 0 500 500" xml:space="preserve">
<symbol  id="Notepad" viewBox="-31.947 -32 63.894 64">
	<path fill="#FFFFFF" d="M-7.637,21.898v2.073h5.846v-2.073c0-1.099,0.898-2,2-2h0.5c1.1,0,2,0.901,2,2v2.073h5.846v-2.073
		c0-1.099,0.898-2,2-2h0.5c1.1,0,2,0.901,2,2v2.073h1.191l3.807-3.737v-5.98h4v7.66l-6.172,6.059h-2.826V30c0,1.098-0.9,2-2,2h-0.5
		c-1.102,0-2-0.902-2-2v-2.027H2.709V30c0,1.098-0.9,2-2,2h-0.5c-1.102,0-2-0.902-2-2v-2.027h-5.846V30c0,1.098-0.899,2-2,2h-0.5
		c-1.1,0-2-0.902-2-2v-2.027h-5.844V30c0,1.098-0.9,2-2,2h-0.5c-1.102,0-2-0.902-2-2v-2.027h-9.466V-32h17.666l1.002,4h-14.667
		v51.973h5.466v-2.073c0-1.099,0.899-2,2-2h0.5c1.1,0,2,0.901,2,2v2.073h5.844v-2.073c0-1.099,0.9-2,2-2h0.5
		C-8.536,19.898-7.637,20.801-7.637,21.898z"/>
	<path fill="#FFFFFF" d="M30.762,1.594l-6.402,6.402c-1.557,1.559-4.074,1.586-5.598,0.065c0-0.002-0.002-0.004-0.004-0.006
		l-0.001,0.002L-4.586-15.285l-0.471-0.465l-4.041-16.133L7.02-27.84l1.504,1.531l0,0L30.824-4.004h-0.001
		c0,0.002,0.002,0.002,0.003,0.004C32.346-2.48,32.316,0.039,30.762,1.594z M-3.402-17.377l8.812-8.809l-8.272-2.072l-2.582,2.719
		L-3.402-17.377z M7.027-20.734l-4.996,4.996L18.757,0.988l4.995-4.996L7.027-20.734z"/>
</symbol>
<g>
	<circle cx="252.574" cy="251.588" r="247.688"/>
</g>
<path fill="#FFFFFF" d="M349.391,195.677c0,5.632-4.563,10.159-10.177,10.159H163.261c-5.614,0-10.159-4.526-10.159-10.159l0,0
	c0-5.614,4.544-10.159,10.159-10.159h175.953C344.826,185.519,349.391,190.063,349.391,195.677L349.391,195.677z"/>
<path fill="#FFFFFF" d="M308.176,244.444c0,5.632-3.587,10.177-8.005,10.177H161.125c-4.428,0-8.022-4.545-8.022-10.177l0,0
	c0-5.614,3.594-10.159,8.022-10.159h139.046C304.589,234.285,308.176,238.83,308.176,244.444L308.176,244.444z"/>
<path fill="#FFFFFF" d="M264.172,293.211c0,5.631-2.572,10.158-5.74,10.158h-99.58c-3.178,0-5.749-4.527-5.749-10.158l0,0
	c0-5.613,2.571-10.159,5.749-10.159h99.58C261.6,283.052,264.172,287.598,264.172,293.211L264.172,293.211z"/>
<path fill="#FFFFFF" d="M234.274,341.979c0,5.631-1.883,10.157-4.201,10.157h-72.77c-2.318,0-4.201-4.526-4.201-10.157l0,0
	c0-5.614,1.883-10.16,4.201-10.16h72.77C232.391,331.816,234.274,336.363,234.274,341.979L234.274,341.979z"/>
<use xlink:href="#Notepad"  width="63.894" height="64" id="XMLID_1_" x="-31.947" y="-32" transform="matrix(4.8101 0 0 -5.1569 271.2676 249.6953)" overflow="visible"/>
</svg>
