<?xml version="1.0" encoding="utf-8"?>
<!-- Generator: Adobe Illustrator 15.0.0, SVG Export Plug-In . SVG Version: 6.00 Build 0)  -->
<!DOCTYPE svg PUBLIC "-//W3C//DTD SVG 1.1//EN" "http://www.w3.org/Graphics/SVG/1.1/DTD/svg11.dtd">
<svg version="1.1" id="Layer_1" xmlns="http://www.w3.org/2000/svg" xmlns:xlink="http://www.w3.org/1999/xlink" x="0px" y="0px"
	 width="500px" height="500px" viewBox="0 0 500 500" enable-background="new 0 0 500 500" xml:space="preserve">
<g>
	<circle cx="250.313" cy="251.313" r="247.688"/>
</g>
<path fill="#FFFFFF" d="M307.332,101.613c0,30.928-25.066,56.02-56.02,56.02c-30.928,0-56.021-25.092-56.021-56.02
	c0-30.927,25.093-56.02,56.021-56.02C282.266,45.593,307.332,70.686,307.332,101.613z"/>
<path fill="#FFFFFF" d="M307.332,250.999c0,30.928-25.066,56.019-56.02,56.019c-30.928,0-56.021-25.091-56.021-56.019
	c0-30.928,25.093-56.021,56.021-56.021C282.266,194.979,307.332,220.071,307.332,250.999z"/>
<path fill="#FFFFFF" d="M307.332,400.383c0,30.928-25.066,56.021-56.02,56.021c-30.928,0-56.021-25.095-56.021-56.021
	s25.093-56.018,56.021-56.018C282.266,344.365,307.332,369.456,307.332,400.383z"/>
</svg>
