<?xml version="1.0" encoding="utf-8"?>
<!-- Generator: Adobe Illustrator 15.0.0, SVG Export Plug-In . SVG Version: 6.00 Build 0)  -->
<!DOCTYPE svg PUBLIC "-//W3C//DTD SVG 1.1//EN" "http://www.w3.org/Graphics/SVG/1.1/DTD/svg11.dtd">
<svg version="1.1" id="Layer_1" xmlns="http://www.w3.org/2000/svg" xmlns:xlink="http://www.w3.org/1999/xlink" x="0px" y="0px"
	 width="500px" height="500px" viewBox="0 0 500 500" enable-background="new 0 0 500 500" xml:space="preserve">
<g>
	<circle cx="252.574" cy="251.588" r="247.688"/>
</g>
<g>
	<g>
		<path fill="#FFFFFF" d="M149.662,464.43c-19.683-9.321-37.808-21.379-54.376-36.131c-16.567-14.752-30.821-31.18-42.718-49.326
			c-11.917-18.123-21.1-38.045-27.567-59.805c-6.487-21.758-9.722-44.275-9.722-67.57c0-17.605,1.937-34.314,5.829-50.104
			c3.893-15.79,8.923-31.2,15.15-46.211L149.662,464.43z M252.186,15.451c31.08,0,60.324,5.449,87.771,16.329
			c27.447,10.857,51.78,25.89,73.02,45.034h-4.65c-11.398,0-20.721,4.411-27.966,13.214c-7.267,8.803-10.88,18.385-10.88,28.746
			c0,9.841,2.336,19.163,6.986,27.966c4.672,8.803,10.102,18.125,16.31,27.946c4.15,7.765,8.544,16.708,13.215,26.808
			c4.65,10.101,6.985,22.656,6.985,37.668c0,10.36-1.677,21.877-5.051,34.572c-3.373,12.697-7.904,26.789-13.594,42.32
			l-23.295,78.449L285.581,141.29c3.633-0.5,7.007-0.898,10.101-1.158c3.113-0.26,5.948-0.639,8.545-1.178
			c2.595-0.499,5.17-0.779,7.765-0.779c3.114-0.499,5.31-1.796,6.606-3.873c1.297-2.056,1.956-4.271,1.956-6.607
			c0-2.335-0.918-4.392-2.733-6.208c-1.816-1.817-4.272-2.714-7.365-2.714c-7.268,0.519-14.514,1.038-21.76,1.537
			c-6.207,0.539-13.074,0.918-20.58,1.178c-7.506,0.26-14.372,0.379-20.58,0.379c-5.709,0-12.316-0.12-19.802-0.379
			c-7.525-0.26-14.373-0.639-20.601-1.178c-7.766-0.499-15.271-1.018-22.517-1.537c-3.114,0-5.57,0.897-7.386,2.714
			c-1.816,1.816-2.716,3.873-2.716,6.208c0,2.335,0.64,4.551,1.937,6.607c1.298,2.076,3.494,3.374,6.607,3.873
			c2.595,0,5.17,0.28,7.766,0.779c2.595,0.539,5.449,0.918,8.543,1.178c3.114,0.259,6.229,0.658,9.322,1.158l36.51,100.208
			l-52.04,155.342l-85.436-255.55c3.613-0.5,6.986-0.898,10.08-1.158c3.114-0.26,5.948-0.639,8.563-1.178
			c2.575-0.499,5.17-0.779,7.766-0.779c3.094-0.499,5.429-1.796,6.986-3.873c1.557-2.056,2.336-4.272,2.336-6.607
			s-0.918-4.392-2.735-6.208c-1.816-1.817-4.271-2.714-7.365-2.714c-7.766,0.519-15.291,1.038-22.537,1.537
			c-6.208,0.539-12.935,0.918-20.182,1.178c-7.266,0.26-13.993,0.379-20.2,0.379H54.903c21.22-32.617,48.927-58.508,83.101-77.671
			C172.179,25.052,210.245,15.451,252.186,15.451z M252.186,487.725c-11.397,0-22.656-0.639-33.774-1.936
			c-11.159-1.297-21.898-3.754-32.238-7.387l69.905-205.846l73.021,198.858c0.498,0.521,0.76,1.039,0.76,1.557
			c0,0.521,0.519,0.761,1.557,0.761c-12.416,5.188-25.231,8.821-38.446,10.879C279.771,486.688,266.178,487.725,252.186,487.725z
			 M460.366,138.175c8.782,16.588,15.909,34.314,21.357,53.218c5.431,18.903,8.146,38.965,8.146,60.205
			c0,44.016-10.859,84.02-32.617,120.01c-21.738,35.989-50.483,64.075-86.215,84.26l72.241-208.163
			c7.247-17.087,12.156-32.617,14.752-46.61c2.575-13.973,3.892-26.908,3.892-38.826c0-4.152,0-8.284,0-12.436
			C461.922,145.701,461.384,141.809,460.366,138.175z"/>
	</g>
</g>
</svg>
