<?xml version="1.0" encoding="utf-8"?>
<!-- Generator: Adobe Illustrator 15.0.0, SVG Export Plug-In . SVG Version: 6.00 Build 0)  -->
<!DOCTYPE svg PUBLIC "-//W3C//DTD SVG 1.1//EN" "http://www.w3.org/Graphics/SVG/1.1/DTD/svg11.dtd">
<svg version="1.1" id="Layer_1" xmlns="http://www.w3.org/2000/svg" xmlns:xlink="http://www.w3.org/1999/xlink" x="0px" y="0px"
	 width="500px" height="500px" viewBox="0 0 500 500" enable-background="new 0 0 500 500" xml:space="preserve">
<g id="facebook_comment">
	<circle cx="250.117" cy="251.117" r="246.883"/>
	<path fill="#FFFFFF" stroke="#D8D8D8" stroke-width="5" stroke-miterlimit="10" d="M144.741,388.559v-58.265h-25.694
		c0,0-15.354,3.17-14.828-12.719V214.528c0,0-0.268-11.116,12.976-10.58l136.675-0.036c0,0,15.315-3.572,15.337,8.17v108.145
		c0,0,3.206,10.483-9.771,11.06l-60.124-0.46L144.741,388.559z"/>
	<path fill="#FFFFFF" stroke="#A0A0A0" stroke-width="5" stroke-miterlimit="10" d="M350.442,321.279H338.26l-47.15-50.321h-107
		c0,0-11.668,1.586-12.185-10.599V121.564c0,0,0-8.479,11.115-7.943l197.603-0.021c0,0,10.065-1.583,10.599,11.135v131.919
		c0,0,3.172,12.72-9.011,14.304h-31.253L350.442,321.279z"/>
	<rect x="192.369" y="140.738" fill="#A4AFCD" width="146.091" height="17.11"/>
	<rect x="192.369" y="171.255" fill="#CAD0D8" width="163.038" height="17.11"/>
	<rect x="192.369" y="195.623" fill="#CAD0D8" width="163.038" height="17.11"/>
	<rect x="192.369" y="220.813" fill="#CAD0D8" width="101.697" height="17.126"/>
</g>
</svg>
