<?xml version="1.0" encoding="utf-8"?>
<!-- Generator: Adobe Illustrator 15.0.0, SVG Export Plug-In . SVG Version: 6.00 Build 0)  -->
<!DOCTYPE svg PUBLIC "-//W3C//DTD SVG 1.1//EN" "http://www.w3.org/Graphics/SVG/1.1/DTD/svg11.dtd">
<svg version="1.1" id="Layer_1" xmlns="http://www.w3.org/2000/svg" xmlns:xlink="http://www.w3.org/1999/xlink" x="0px" y="0px"
	 width="500px" height="500px" viewBox="0 0 500 500" enable-background="new 0 0 500 500" xml:space="preserve">
<g>
	<circle cx="251.313" cy="251.312" r="247.688"/>
</g>
<g enable-background="new    ">
	<path fill="#FFFFFF" d="M241.289,272.969c3.579,1.055,7.365,1.789,11.357,2.208c-7.778-5.048-13.354-11.989-16.721-20.823
		c3.579,1.894,7.469,3.683,11.674,5.363c4.209,1.687,8.415,2.84,12.62,3.471c3.58-3.574,7.682-6.468,12.305-8.676
		c4.629-2.209,9.781-3.313,15.46-3.313c5.261,0,10.15,1.001,14.671,2.998c4.525,2.001,8.519,4.732,11.989,8.203
		c3.471,3.47,6.206,7.571,8.203,12.304c2.001,4.733,2.997,9.731,2.997,14.987c0,2.947-0.315,5.679-0.946,8.203
		c15.775-0.632,30.397-4.467,43.854-11.517c13.463-7.044,24.926-16.455,34.391-28.237c3.367,6.103,5.048,12.517,5.048,19.246
		c0,6.733-1.47,12.832-4.417,18.299c-2.943,5.472-7.148,9.889-12.62,13.251c3.579,0,6.783-0.419,9.622-1.262
		c2.84-0.838,5.521-1.894,8.046-3.155v0.315c0,9.258-2.889,17.304-8.677,24.137c-5.782,6.837-13.093,11.2-21.927,13.093
		c1.686,0.424,3.313,0.739,4.89,0.946c1.578,0.212,3.313,0.315,5.206,0.315c2.104,0,4.417-0.315,6.941-0.946
		c-2.312,7.572-6.675,13.833-13.094,18.772c-6.413,4.944-13.827,7.523-22.243,7.73c13.252,10.727,28.924,16.09,47.01,16.09
		c1.687,0,3.264,0,4.733,0c1.474,0,2.948-0.104,4.417-0.315c-8.622,5.473-17.826,9.731-27.607,12.778
		c-9.779,3.052-20.033,4.575-30.761,4.575c-17.456,0-32.862-3.259-46.222-9.781c-13.354-6.517-24.609-14.986-33.759-25.397
		c-9.149-10.412-16.091-22.086-20.823-35.021s-7.099-25.713-7.099-38.334v-4.417c-7.572-5.886-13.882-12.512-18.93-19.876
		C234.244,270.656,237.715,271.918,241.289,272.969z"/>
</g>
<g enable-background="new    ">
	<path fill="#FFFFFF" d="M170.696,89.013c3.579,1.055,7.365,1.789,11.358,2.208c-7.779-5.048-13.354-11.989-16.722-20.823
		c3.579,1.894,7.469,3.683,11.674,5.363c4.21,1.687,8.415,2.84,12.62,3.471c3.579-3.574,7.681-6.468,12.305-8.676
		c4.629-2.209,9.781-3.313,15.459-3.313c5.26,0,10.15,1.001,14.671,2.998c4.525,2.001,8.519,4.732,11.989,8.203
		c3.471,3.47,6.207,7.571,8.203,12.304c2.002,4.733,2.997,9.731,2.997,14.987c0,2.947-0.315,5.679-0.946,8.203
		c15.775-0.632,30.396-4.467,43.855-11.517c13.463-7.044,24.924-16.455,34.389-28.237c3.367,6.103,5.049,12.517,5.049,19.246
		c0,6.733-1.469,12.832-4.417,18.299c-2.943,5.472-7.148,9.889-12.62,13.251c3.579,0,6.783-0.419,9.623-1.262
		c2.84-0.838,5.521-1.894,8.045-3.155v0.315c0,9.258-2.889,17.304-8.676,24.137c-5.783,6.837-13.094,11.2-21.928,13.093
		c1.686,0.424,3.313,0.739,4.891,0.946c1.577,0.212,3.313,0.315,5.205,0.315c2.105,0,4.417-0.315,6.941-0.946
		c-2.313,7.572-6.675,13.833-13.094,18.772c-6.414,4.944-13.828,7.523-22.242,7.73c13.25,10.727,28.922,16.09,47.01,16.09
		c1.686,0,3.264,0,4.732,0c1.474,0,2.947-0.104,4.417-0.315c-8.622,5.473-17.826,9.731-27.606,12.778
		c-9.781,3.052-20.035,4.575-30.762,4.575c-17.457,0-32.861-3.259-46.222-9.781c-13.354-6.517-24.609-14.986-33.759-25.397
		c-9.149-10.412-16.09-22.086-20.823-35.021c-4.732-12.936-7.099-25.713-7.099-38.334v-4.417
		c-7.572-5.886-13.882-12.512-18.93-19.876C163.651,86.7,167.122,87.962,170.696,89.013z"/>
</g>
<g enable-background="new    ">
	<path fill="#FFFFFF" d="M47.527,231.16c3.579,1.055,7.365,1.789,11.358,2.208c-7.779-5.048-13.354-11.989-16.722-20.823
		c3.579,1.894,7.469,3.683,11.674,5.363c4.21,1.687,8.415,2.84,12.62,3.471c3.579-3.574,7.681-6.468,12.305-8.676
		c4.629-2.209,9.781-3.313,15.459-3.313c5.26,0,10.15,1.001,14.671,2.998c4.525,2.001,8.519,4.732,11.989,8.203
		c3.471,3.47,6.207,7.571,8.203,12.304c2.001,4.733,2.997,9.731,2.997,14.987c0,2.947-0.315,5.679-0.946,8.203
		c15.775-0.632,30.397-4.467,43.855-11.517c13.463-7.044,24.925-16.455,34.39-28.237c3.367,6.103,5.048,12.517,5.048,19.246
		c0,6.733-1.469,12.832-4.417,18.299c-2.943,5.472-7.148,9.889-12.62,13.251c3.579,0,6.783-0.419,9.623-1.262
		c2.84-0.838,5.521-1.894,8.045-3.155v0.315c0,9.258-2.889,17.304-8.676,24.137c-5.783,6.837-13.093,11.2-21.927,13.093
		c1.686,0.424,3.313,0.739,4.89,0.946c1.578,0.212,3.313,0.315,5.206,0.315c2.105,0,4.417-0.315,6.941-0.946
		c-2.312,7.572-6.675,13.833-13.094,18.772c-6.414,4.944-13.828,7.523-22.243,7.73c13.251,10.727,28.923,16.09,47.01,16.09
		c1.686,0,3.264,0,4.733,0c1.474,0,2.948-0.104,4.417-0.315c-8.622,5.473-17.826,9.731-27.607,12.778
		c-9.78,3.052-20.034,4.575-30.761,4.575c-17.457,0-32.862-3.259-46.222-9.781c-13.354-6.517-24.609-14.986-33.759-25.397
		c-9.149-10.412-16.09-22.086-20.823-35.021c-4.732-12.936-7.099-25.713-7.099-38.334v-4.417
		c-7.572-5.886-13.882-12.512-18.93-19.876C40.482,228.848,43.953,230.109,47.527,231.16z"/>
</g>
</svg>
