<?xml version="1.0" encoding="utf-8"?>
<!-- Generator: Adobe Illustrator 15.0.0, SVG Export Plug-In . SVG Version: 6.00 Build 0)  -->
<!DOCTYPE svg PUBLIC "-//W3C//DTD SVG 1.1//EN" "http://www.w3.org/Graphics/SVG/1.1/DTD/svg11.dtd">
<svg version="1.1" id="Layer_1" xmlns="http://www.w3.org/2000/svg" xmlns:xlink="http://www.w3.org/1999/xlink" x="0px" y="0px"
	 width="500px" height="500px" viewBox="0 0 500 500" enable-background="new 0 0 500 500" xml:space="preserve">
<g>
	<circle cx="251.313" cy="251.313" r="247.688"/>
</g>
<g>
	<g>
		<g>
			<path fill="#FFFFFF" d="M84.121,326.848c-51.414-12.236-43.08-55.808-43.08-55.808c19.589-68.531,75.865-35.278,75.865-35.278
				c34.255-87.629,108.179-48.43,108.179-48.43c24.493-43.081,74.903-42.57,74.903-42.57c83.688-1.981,94.943,82.236,94.943,82.236
				c53.847-12.746,65.121,24.574,65.121,24.574c24.962,64.263-41.14,75.273-41.14,75.273H84.121V326.848z"/>
		</g>
		<rect x="54.013" y="225.978" width="9.191" height="100.87"/>
		<rect x="78.811" y="225.978" width="9.805" height="101.172"/>
		<rect x="105.569" y="200.976" width="11.03" height="125.872"/>
		<rect x="131.674" y="183.573" width="11.112" height="143.272"/>
		<rect x="159.087" y="175.729" width="9.804" height="151.647"/>
		<rect x="186.132" y="180.958" width="10.173" height="146.418"/>
		<rect x="212.604" y="167.906" width="10.418" height="159.471"/>
		<rect x="241.324" y="149.624" width="9.805" height="177.224"/>
	</g>
</g>
</svg>
