<?xml version="1.0" encoding="utf-8"?>
<!-- Generator: Adobe Illustrator 15.0.0, SVG Export Plug-In . SVG Version: 6.00 Build 0)  -->
<!DOCTYPE svg PUBLIC "-//W3C//DTD SVG 1.1//EN" "http://www.w3.org/Graphics/SVG/1.1/DTD/svg11.dtd">
<svg version="1.1" id="Layer_1" xmlns="http://www.w3.org/2000/svg" xmlns:xlink="http://www.w3.org/1999/xlink" x="0px" y="0px"
	 width="500px" height="500px" viewBox="0 0 500 500" enable-background="new 0 0 500 500" xml:space="preserve">
<g>
	<circle cx="252.313" cy="252.313" r="247.688"/>
</g>
<g id="Rounded_Rectangle_1">
	<g>
		<path fill-rule="evenodd" clip-rule="evenodd" fill="#FFFFFF" d="M409.969,360.913H226.65
			c-10.67,13.006-24.123,23.396-39.378,30.145c0.615,0.086,1.239,0.146,1.876,0.146h220.821c7.886,0,14.284-6.755,14.284-15.079
			v-0.131C424.253,367.668,417.854,360.913,409.969,360.913z M189.209,131.792h220.698c7.924,0,14.346-6.78,14.346-15.146
			c0-8.365-6.422-15.145-14.346-15.145H189.209c-7.924,0-14.345,6.78-14.345,15.145
			C174.864,125.012,181.285,131.792,189.209,131.792z M409.907,317.678H248.682c-2.87,10.848-7.239,21.034-12.863,30.291h174.089
			c7.924,0,14.346-6.781,14.346-15.146S417.831,317.678,409.907,317.678z M409.907,144.736H189.209
			c-7.924,0-14.345,6.78-14.345,15.146c0,8.365,6.421,15.145,14.345,15.145h220.698c7.924,0,14.346-6.78,14.346-15.145
			C424.253,151.516,417.831,144.736,409.907,144.736z M410.083,187.971H195.794c13.272,7.399,24.887,17.667,34.094,30.031h180.195
			c7.824,0,14.17-6.698,14.17-14.959v-0.113C424.253,194.669,417.907,187.971,410.083,187.971z M409.846,230.948H238.212
			c5.184,9.402,9.111,19.669,11.542,30.548h160.092c7.954,0,14.407-6.811,14.407-15.209v-0.129
			C424.253,237.76,417.8,230.948,409.846,230.948z M410.03,274.441H251.892c0.462,4.248,0.707,8.566,0.707,12.945
			c0,5.81-0.418,11.516-1.223,17.087H410.03c7.854,0,14.223-6.724,14.223-15.016C424.253,281.164,417.885,274.441,410.03,274.441z
			 M244.261,287.387c0-57.337-43.971-103.817-98.21-103.817c-54.24,0-98.21,46.48-98.21,103.817s43.971,103.816,98.21,103.816
			C200.29,391.203,244.261,344.724,244.261,287.387z"/>
	</g>
</g>
<g>
	<path stroke="#000000" stroke-width="2" stroke-miterlimit="10" d="M145.489,273.899c0,1.453,0.691,2.496,2.074,3.128
		c2.283,1.009,5.289,2.179,9.014,3.502c5.89,2.02,11.179,4.812,15.866,8.379c4.688,3.565,8.445,7.936,11.269,13.108
		c2.825,5.175,4.237,10.727,4.237,16.66c0,11.548-3.44,20.463-10.322,26.741c-6.88,6.277-16.963,9.765-30.245,10.459
		c-0.662,0-1.112,0.188-1.353,0.568c-0.241,0.381-0.36,1.169-0.36,2.37v15.161c0,1.075-0.385,2.022-1.153,2.845
		c-0.768,0.819-1.654,1.232-2.659,1.232c-2.307,0-3.459-1.36-3.459-4.077v-15.161c0-1.96-0.478-2.938-1.432-2.938
		c-8.417-0.507-16.058-2.021-22.922-4.55c-6.864-2.526-10.296-5.148-10.296-7.864c0-0.886,0.059-2.148,0.179-3.792
		c0.118-3.222,0.178-6.666,0.178-10.331c0-1.516-0.329-3.946-0.985-7.297c-0.538-2.843-0.808-4.834-0.808-5.97
		c0-2.4,1.038-3.603,3.114-3.603c1.655,0,3.31,3.422,4.965,10.263c1.736,7.161,4.398,12.388,7.99,15.681
		c3.59,3.296,7.36,5.609,11.311,6.938c3.949,1.331,6.462,1.995,7.54,1.995c0.658,0,0.988-1.075,0.988-3.222v-52.03
		c0-1.391-0.598-2.338-1.792-2.844c-22.745-9.425-34.115-22.773-34.115-40.043c0-8.733,3.163-16.166,9.491-22.302
		c6.327-6.136,14.356-9.647,24.086-10.533c1.015-0.126,1.672-0.332,1.971-0.617c0.297-0.284,0.478-0.867,0.537-1.753l0.533-8.908
		c0.176-2.337,1.092-3.507,2.747-3.507c1.063,0,1.934,0.348,2.613,1.042c0.679,0.695,1.02,1.516,1.02,2.464v8.908
		c0,1.327,0.691,2.054,2.077,2.18c7.226,0.506,13.459,1.769,18.699,3.79c5.239,2.023,7.859,4.582,7.859,7.677
		c0,0.758-0.121,1.77-0.358,3.033c-0.24,1.327-0.36,2.369-0.36,3.127c0,0.569,0.209,1.581,0.628,3.034
		c0.837,3.286,1.257,6.539,1.257,9.761c0,1.833-0.819,2.747-2.457,2.747c-0.91,0-1.804-0.47-2.684-1.415
		c-0.88-0.945-1.41-2.014-1.593-3.21c-1.262-7.301-3.875-12.511-7.84-15.625c-3.967-3.115-8.292-4.673-12.977-4.673
		c-0.841,0-1.398,0.127-1.668,0.379c-0.271,0.253-0.406,0.947-0.406,2.084V273.899z M138.577,269.825v-43.5
		c0-1.264-0.389-1.896-1.167-1.896c-1.616,0-4.264,0.791-7.945,2.37c-3.679,1.58-6.627,4.186-8.841,7.818
		c-2.216,3.633-3.322,7.915-3.322,12.843c0,7.201,3.052,13.029,9.156,17.484c6.104,4.454,9.813,6.681,11.131,6.681
		C138.247,271.624,138.577,271.025,138.577,269.825z M145.849,344.314c0,1.266,0.03,2.118,0.089,2.558
		c0.06,0.444,0.269,0.664,0.631,0.664c1.801,0,5.132-0.788,9.997-2.368c4.863-1.578,8.901-4.313,12.112-8.197
		c3.212-3.889,4.818-8.735,4.818-14.549c0-5.433-1.562-10.202-4.683-14.311c-3.123-4.105-7.416-7.548-12.878-10.33
		c-5.464-2.78-8.585-4.17-9.366-4.17c-0.481,0-0.72,0.475-0.72,1.422V344.314z"/>
</g>
</svg>
