<?xml version="1.0" encoding="utf-8"?>
<!-- Generator: Adobe Illustrator 15.0.0, SVG Export Plug-In . SVG Version: 6.00 Build 0)  -->
<!DOCTYPE svg PUBLIC "-//W3C//DTD SVG 1.1//EN" "http://www.w3.org/Graphics/SVG/1.1/DTD/svg11.dtd">
<svg version="1.1" id="Layer_1" xmlns="http://www.w3.org/2000/svg" xmlns:xlink="http://www.w3.org/1999/xlink" x="0px" y="0px"
	 width="500px" height="500px" viewBox="0 0 500 500" enable-background="new 0 0 500 500" xml:space="preserve">
<g>
	<circle cx="251.313" cy="251.313" r="247.688"/>
</g>
<path fill="#FFFFFF" d="M173.49,296.398c0,0-42.383-31.193-40.771-78.76c0,0,3.186-31.978,46.759-28.37
	c0,0,11.977,1.212,22.784,4.417l54.765-93.136c0,0-15.204-58.352,62.344-35.588c0,0,42.386,14.779,71.562,57.165
	c0,0,29.561,52.746-16.392,58.352l-76.742,83.94c0,0,27.563,46.355,2.379,66.741c0,0-17.181,19.196-56.359,6.795
	c0,0-27.561-9.173-43.149-19.579l-98.338,99.932"/>
</svg>
