<?xml version="1.0" encoding="utf-8"?>
<!-- Generator: Adobe Illustrator 15.0.0, SVG Export Plug-In . SVG Version: 6.00 Build 0)  -->
<!DOCTYPE svg PUBLIC "-//W3C//DTD SVG 1.1//EN" "http://www.w3.org/Graphics/SVG/1.1/DTD/svg11.dtd">
<svg version="1.1" id="Layer_1" xmlns="http://www.w3.org/2000/svg" xmlns:xlink="http://www.w3.org/1999/xlink" x="0px" y="0px"
	 width="500px" height="500px" viewBox="0 0 500 500" enable-background="new 0 0 500 500" xml:space="preserve">
<g>
	<circle cx="252.313" cy="252.313" r="247.688"/>
</g>
<g>
	<g>
		<path fill="#FFFFFF" d="M402.989,227.553c0,73.695-75.889,133.437-169.533,133.437c-93.646,0-169.532-59.74-169.532-133.437
			c0-73.694,75.886-133.435,169.532-133.435C327.102,94.118,402.989,153.859,402.989,227.553z"/>
		<path fill="#FFFFFF" d="M252.293,63.249c104.064,0,188.408,68.044,188.408,152.003c0,82.325-70.197,151.465-171.07,151.465
			c-1.941,0-3.922,0-5.882-0.078c-17.396-0.461-34.752-4.188-50.264-4.611L65.116,391.839l35.021-87.034
			c-22.758-25.121-36.213-56.069-36.213-89.553C63.924,131.292,148.248,63.249,252.293,63.249 M252.293,104.46
			c-81.151,0-147.158,49.706-147.158,110.792c0,27.833,13.878,49.016,25.545,61.893l17.318,19.105l-9.63,23.932l-6.516,16.203
			l73.501-14.762l4.575-0.922l4.671,0.113c9.515,0.271,18.702,1.402,27.621,2.5c8.054,0.998,15.646,1.961,22.604,2.15
			c1.613,0.039,3.229,0.039,4.806,0.039c74.041,0,129.86-47.398,129.86-110.254C399.491,154.166,333.445,104.46,252.293,104.46
			L252.293,104.46z"/>
	</g>
</g>
<g enable-background="new    ">
	<path fill="#020202" d="M214.319,192.181c-5.492-10.355-7.203-20.503-5.136-30.441c2.65-12.747,9.856-22.086,21.613-28.021
		c11.758-5.932,25.617-7.239,41.577-3.92c16.461,3.423,29.259,10.745,38.393,21.964c9.132,11.22,12.312,23.504,9.536,36.854
		c-1.941,9.335-5.948,17.01-12.015,23.026c-6.068,6.017-15.455,11.629-28.162,16.841l-18.183,7.371
		c-5.952,2.429-11.537,6.004-16.761,10.73c-5.224,4.726-8.092,8.816-8.599,12.271l-1.27,8.375c-0.194,1.427-0.907,2.587-2.138,3.481
		c-1.113,0.817-2.41,1.019-3.895,0.604c-2.29-0.579-4.002-2.663-5.141-6.253c-1.138-3.587-1.281-7.437-0.424-11.554
		c2.859-13.751,13.534-26.82,32.028-39.207c12.165-8.151,20.597-14.825,25.291-20.03c4.694-5.201,7.772-11.315,9.233-18.342
		c1.774-8.53,0.699-15.955-3.222-22.268c-3.925-6.313-10.002-10.326-18.231-12.037c-6.926-1.44-13.353-0.499-19.28,2.823
		c-5.928,3.323-9.526,8.047-10.799,14.169c-1.357,6.526,1.568,13.103,8.778,19.731c-1.029,0.415-1.606,0.663-1.726,0.741
		l-9.101,2.976C230.174,184.167,222.718,187.541,214.319,192.181z M241.627,281.423c5.421,1.127,9.639,3.995,12.662,8.602
		c3.021,4.608,3.969,9.621,2.842,15.042c-1.106,5.321-3.965,9.49-8.571,12.511c-4.609,3.022-9.62,3.969-15.041,2.842
		c-5.321-1.106-9.492-3.962-12.512-8.571c-3.023-4.606-3.979-9.569-2.873-14.891c1.127-5.42,3.993-9.64,8.602-12.662
		C231.343,281.274,236.306,280.316,241.627,281.423z M265.648,184.791l-3.688,1.118c-16.529,5.464-29.204,10.262-38.021,14.398
		l-1.542,0.622l-1.752-3.663l1.725-0.741c15.29-6.559,27.108-11.013,35.451-13.362c-7.146-6.93-9.852-14.561-8.119-22.894
		c0.855-4.114,3.237-7.259,7.144-9.431c3.907-2.172,8.319-2.746,13.239-1.724c9.535,1.983,15.534,8.885,17.998,20.707l-0.903-0.188
		c-4.433-9.404-10.563-14.919-18.393-16.548c-8.633-1.795-13.752,1.173-15.358,8.901
		C251.693,170.319,255.768,177.92,265.648,184.791z M264.854,292.85c4.556,6.288,6.031,13.297,4.424,21.025
		c-1.419,6.827-5.197,12.271-11.329,16.336c-6.134,4.065-12.614,5.388-19.439,3.969c-8.031-1.671-13.929-6.038-17.694-13.104
		l1.122-0.865c5.63,5.151,11.105,8.278,16.428,9.385c6.222,1.294,12.047,0.227,17.473-3.2c5.424-3.427,8.762-8.151,10.015-14.175
		c1.169-5.619,0.359-11.809-2.422-18.566L264.854,292.85z M318.855,148.732c12.5,13.909,17.008,29.246,13.522,46.007
		c-2.316,11.142-8.08,20.73-17.29,28.762c-4.738,4.147-17.355,10.948-37.855,20.402l-9.716,4.419
		c-11.824,5.501-18.446,11.663-19.866,18.488c-0.731,3.515-0.232,7.911,1.498,13.191l-5.108-2.633
		c-1.075-3.888-1.227-7.688-0.455-11.404c1.106-5.318,3.925-9.811,8.458-13.478c4.531-3.664,12.253-7.818,23.167-12.46
		c18.456-7.68,31.536-14.935,39.239-21.763c7.702-6.826,12.65-15.511,14.842-26.051c1.607-7.728,1.342-15.401-0.79-23.018
		c-2.134-7.616-5.805-14.009-11.014-19.176L318.855,148.732z"/>
</g>
</svg>
