<?xml version="1.0" encoding="utf-8"?>
<!-- Generator: Adobe Illustrator 15.0.0, SVG Export Plug-In . SVG Version: 6.00 Build 0)  -->
<!DOCTYPE svg PUBLIC "-//W3C//DTD SVG 1.1//EN" "http://www.w3.org/Graphics/SVG/1.1/DTD/svg11.dtd">
<svg version="1.1" id="Layer_1" xmlns="http://www.w3.org/2000/svg" xmlns:xlink="http://www.w3.org/1999/xlink" x="0px" y="0px"
	 width="500px" height="500px" viewBox="0 0 500 500" enable-background="new 0 0 500 500" xml:space="preserve">
<g>
	<circle fill="#020202" cx="251.312" cy="250.313" r="247.688"/>
</g>
<path fill="#FFFFFF" d="M175.783,127.918h196.666c0,0,39.791,2.748,46.988,51.369v117.127h40.313l-64.647,72.934l-63.513-72.934
	h39.77V185.393c0,0,4.402-8.307-10.487-9.42c-14.936-1.09-143.641,0-143.641,0L175.783,127.918z"/>
<path fill="#FFFFFF" d="M330.863,369.551h-196.71c0,0-39.769-2.769-46.942-51.392V201.032H46.874l64.647-72.908l63.536,72.908
	h-39.769v111.046c0,0-4.427,8.283,10.487,9.419c14.891,1.089,143.642,0,143.642,0L330.863,369.551z"/>
</svg>
