<?xml version="1.0" encoding="utf-8"?>
<!-- Generator: Adobe Illustrator 15.0.0, SVG Export Plug-In . SVG Version: 6.00 Build 0)  -->
<!DOCTYPE svg PUBLIC "-//W3C//DTD SVG 1.1//EN" "http://www.w3.org/Graphics/SVG/1.1/DTD/svg11.dtd">
<svg version="1.1" id="Layer_1" xmlns="http://www.w3.org/2000/svg" xmlns:xlink="http://www.w3.org/1999/xlink" x="0px" y="0px"
	 width="500px" height="500px" viewBox="0 0 500 500" enable-background="new 0 0 500 500" xml:space="preserve">
<g>
	<circle cx="252.313" cy="252.313" r="247.688"/>
</g>
<path fill="#FFFFFF" d="M98.434,286.413h154.269c0,0,23.32,0.614,16.745-37.653c0,0,2.979-18.542-50.227-38.28
	c0,0-26.563-5.153-23.45-23.189c0,0,16.865-9.701,24.045-33.021c0,0,20.327-8.385,4.185-32.308c0,0,4.188-37.653-12.56-51.998
	c0,0-19.724-15.539-50.223-11.377c0,0-20.926,3.595-25.118,16.746c0,0-18.53,1.797-13.144,46.629c0,0-17.349,16.758,4.175,33.491
	c0,0,3.588,17.349,23.923,32.911c0,0,6.581,13.731-35.88,26.906c0,0-41.858,14.765-39.469,43.842
	C75.705,259.111,73.316,283.433,98.434,286.413z"/>
<path fill="#FFFFFF" stroke="#000000" stroke-width="16" stroke-miterlimit="10" d="M184.301,407.615h215.494
	c0,0,32.575,0.858,23.392-52.596c0,0,4.162-25.902-70.159-53.473c0,0-37.107-7.198-32.759-32.393c0,0,23.56-13.55,33.588-46.125
	c0,0,28.396-11.713,5.846-45.129c0,0,5.85-52.597-17.543-72.635c0,0-27.552-21.705-70.156-15.892c0,0-29.231,5.022-35.086,23.392
	c0,0-25.885,2.51-18.361,65.134c0,0-24.234,23.408,5.832,46.783c0,0,5.013,24.234,33.418,45.973c0,0,9.193,19.181-50.12,37.582
	c0,0-58.47,20.627-55.133,61.243C152.551,369.479,149.215,403.453,184.301,407.615z"/>
<path fill="#FFFFFF" stroke="#000000" stroke-width="15" stroke-miterlimit="10" d="M231.697,404.019c0,0-119.591,2-127.38-101.53
	l-33.622-1.853l70.439-71.765l62.613,79.094l-29.994-1.652C173.754,306.313,144.977,368.976,231.697,404.019z"/>
</svg>
