<?xml version="1.0" encoding="utf-8"?>
<!-- Generator: Adobe Illustrator 15.0.0, SVG Export Plug-In . SVG Version: 6.00 Build 0)  -->
<!DOCTYPE svg PUBLIC "-//W3C//DTD SVG 1.1//EN" "http://www.w3.org/Graphics/SVG/1.1/DTD/svg11.dtd">
<svg version="1.1" id="Layer_1" xmlns="http://www.w3.org/2000/svg" xmlns:xlink="http://www.w3.org/1999/xlink" x="0px" y="0px"
	 width="500px" height="500px" viewBox="0 0 500 500" enable-background="new 0 0 500 500" xml:space="preserve">
<g>
	<circle cx="252.313" cy="252.313" r="247.688"/>
</g>
<path fill="#FFFFFF" d="M115.025,401.363h246.008c0,0,37.188,0.98,26.703-60.043c0,0,4.752-29.57-80.094-61.045
	c0,0-42.361-8.217-37.396-36.979c0,0,26.895-15.468,38.344-52.656c0,0,32.416-13.372,6.674-51.521c0,0,6.678-60.044-20.027-82.919
	c0,0-31.453-24.779-80.091-18.142c0,0-33.37,5.733-40.055,26.704c0,0-29.55,2.866-20.961,74.358c0,0-27.665,26.723,6.657,53.407
	c0,0,5.723,27.666,38.15,52.483c0,0,10.494,21.896-57.217,42.904c0,0-66.749,23.547-62.939,69.914
	C78.779,357.826,74.971,396.611,115.025,401.363z"/>
<circle fill="#FFFFFF" stroke="#000000" stroke-width="19" stroke-miterlimit="10" cx="347.734" cy="336.711" r="91.734"/>
<g>
	<path d="M311.353,330.857h30.63v-37.036h19.819v37.036h31.631v19.219h-31.631v36.035h-19.819v-36.035h-30.63V330.857z"/>
</g>
</svg>
