<?xml version="1.0" encoding="utf-8"?>
<!-- Generator: Adobe Illustrator 15.0.0, SVG Export Plug-In . SVG Version: 6.00 Build 0)  -->
<!DOCTYPE svg PUBLIC "-//W3C//DTD SVG 1.1//EN" "http://www.w3.org/Graphics/SVG/1.1/DTD/svg11.dtd">
<svg version="1.1" id="Layer_1" xmlns="http://www.w3.org/2000/svg" xmlns:xlink="http://www.w3.org/1999/xlink" x="0px" y="0px"
	 width="500px" height="500px" viewBox="0 0 500 500" enable-background="new 0 0 500 500" xml:space="preserve">
<g>
	<circle cx="250.313" cy="251.313" r="247.688"/>
</g>
<path fill="#FFFFFF" d="M205.614,448.638v-28.592c0,0-30.795,3.571-51.789-48.674l-44.647-77.468c0,0-9.37-14.486,5.825-26.541
	c0,0,13.372-13.396,29.453,3.546l20.083,33.809V65.551c0,0,18.335-34.847,41.077-1.823v147.795v5.369c0,0,7.597,15.195,12.51,0.456
	v-41.532c0,0,4.913-16.968,21.425-16.512c0,0,17.424-0.912,20.994,19.196v56.246c0,0-0.684,10.054,6.712,10.054
	c0,0,4.001,0.658,6.229-6.483v-41.735c0,0-0.203-16.739,21.221-17.854c0,0,15.853,0.228,20.766,15.828v62.754
	c0,0,0,7.824,6.914,7.571c0,0,4.686,0.888,6.255-6.687v-41.05c0,0,0.685-16.968,20.994-16.765c0,0,19.171-0.456,20.388,18.538
	v163.217c0,0-7.243,31.429-30.668,35.455c0,0-12.738,0.229-5.345,11.168l8.458,19.88H205.614L205.614,448.638z"/>
</svg>
