<?xml version="1.0" encoding="utf-8"?>
<!-- Generator: Adobe Illustrator 15.0.0, SVG Export Plug-In . SVG Version: 6.00 Build 0)  -->
<!DOCTYPE svg PUBLIC "-//W3C//DTD SVG 1.1//EN" "http://www.w3.org/Graphics/SVG/1.1/DTD/svg11.dtd">
<svg version="1.1" id="Layer_1" xmlns="http://www.w3.org/2000/svg" xmlns:xlink="http://www.w3.org/1999/xlink" x="0px" y="0px"
	 width="500px" height="500px" viewBox="0 0 500 500" enable-background="new 0 0 500 500" xml:space="preserve">
<g>
	<circle cx="250.313" cy="251.313" r="247.688"/>
</g>
<g enable-background="new    ">
	<path fill="#FFFFFF" d="M449.156,148.358c-10.195,14.875-22.939,28.257-38.233,40.146v8.921c0,25.489-4.779,51.297-14.337,77.423
		c-9.559,26.126-23.578,49.704-42.058,70.732s-41.21,38.134-68.183,51.297c-26.983,13.172-58.098,19.754-93.354,19.754
		c-21.666,0-42.375-3.077-62.129-9.24c-19.754-6.153-38.343-14.756-55.757-25.808c2.967,0.429,5.944,0.638,8.921,0.638
		c2.967,0,6.153,0,9.559,0c36.531,0,68.183-10.833,94.947-32.499c-16.996-0.418-31.971-5.625-44.924-15.612
		c-12.964-9.977-21.775-22.621-26.445-37.915c5.098,1.274,9.767,1.912,14.019,1.912c3.824,0,7.328-0.209,10.515-0.638
		c3.186-0.418,6.472-1.055,9.877-1.911c-17.842-3.823-32.608-12.635-44.288-26.445c-11.689-13.8-17.523-30.049-17.523-48.747v-0.638
		c5.098,2.549,10.514,4.68,16.249,6.372c5.735,1.703,12.207,2.549,19.436,2.549c-11.052-6.79-19.545-15.711-25.489-26.764
		c-5.954-11.041-8.921-23.357-8.921-36.959c0-13.591,3.395-26.544,10.196-38.87c19.117,23.796,42.266,42.804,69.458,57.031
		c27.182,14.238,56.713,21.984,88.574,23.259c-1.274-5.098-1.911-10.613-1.911-16.567c0-10.614,2.011-20.71,6.053-30.269
		c4.033-9.559,9.559-17.843,16.568-24.852c7.01-7.01,15.074-12.526,24.215-16.568c9.131-4.032,19.008-6.054,29.631-6.054
		c11.471,0,21.875,2.23,31.225,6.691c9.339,4.46,17.623,10.305,24.852,17.523c8.493-1.274,16.986-3.604,25.488-7.01
		c8.494-3.396,16.35-7.01,23.578-10.833c-6.801,17.843-18.062,31.861-33.773,42.058c8.065-0.847,15.712-2.33,22.94-4.461
		C435.347,153.884,442.355,151.335,449.156,148.358z"/>
</g>
</svg>
