<?xml version="1.0" encoding="utf-8"?>
<!-- Generator: Adobe Illustrator 15.0.0, SVG Export Plug-In . SVG Version: 6.00 Build 0)  -->
<!DOCTYPE svg PUBLIC "-//W3C//DTD SVG 1.1//EN" "http://www.w3.org/Graphics/SVG/1.1/DTD/svg11.dtd">
<svg version="1.1" id="Layer_1" xmlns="http://www.w3.org/2000/svg" xmlns:xlink="http://www.w3.org/1999/xlink" x="0px" y="0px"
	 width="500px" height="500px" viewBox="0 0 500 500" enable-background="new 0 0 500 500" xml:space="preserve">
<g>
	<circle cx="251.313" cy="251.313" r="247.688"/>
</g>
<g enable-background="new    ">
	<path fill="#FFFFFF" d="M264.132,316.36h-38.659l-12.409,83.857c-1.909,11.389-9.545,20.188-22.432,20.188
		c-13.84,0-22.909-10.871-22.909-24.848c0-2.07,0.478-5.176,0.955-8.281l10.5-70.917h-15.272c-11.932,0-21.477-10.353-21.477-23.294
		c0-12.94,9.545-23.293,21.477-23.293h21.954l7.159-49.176H175.36c-11.932,0-21.477-10.353-21.477-23.293
		c0-12.941,9.545-23.294,21.477-23.294h24.341l11.454-76.611c1.909-11.906,11.455-20.188,22.909-20.188
		c12.886,0,22.909,10.353,22.909,23.812c0,0,0,2.071-0.477,6.212l-10.023,66.775h38.182l11.454-76.611
		c1.909-11.906,11.454-20.188,22.909-20.188c12.886,0,22.908,10.353,22.908,23.812c0,0,0,2.071-0.478,6.212l-10.022,66.775h18.137
		c11.931,0,21.477,10.353,21.477,23.294c0,12.941-9.546,23.293-21.477,23.293h-24.818l-7.636,49.176h20.999
		c11.932,0,21.478,10.353,21.478,23.293c0,12.941-9.546,23.294-21.478,23.294h-27.681l-12.409,83.857
		c-1.909,11.389-9.545,20.188-22.432,20.188c-13.841,0-22.908-10.871-22.908-24.848c0-2.07,0.478-5.176,0.954-8.281L264.132,316.36z
		 M232.155,269.773h38.659l7.159-49.176h-38.182L232.155,269.773z"/>
</g>
</svg>
