<?xml version="1.0" encoding="utf-8"?>
<!-- Generator: Adobe Illustrator 15.0.0, SVG Export Plug-In . SVG Version: 6.00 Build 0)  -->
<!DOCTYPE svg PUBLIC "-//W3C//DTD SVG 1.1//EN" "http://www.w3.org/Graphics/SVG/1.1/DTD/svg11.dtd">
<svg version="1.1" id="Layer_1" xmlns="http://www.w3.org/2000/svg" xmlns:xlink="http://www.w3.org/1999/xlink" x="0px" y="0px"
	 width="500px" height="500px" viewBox="0 0 500 500" enable-background="new 0 0 500 500" xml:space="preserve">
<g>
	<circle cx="252.313" cy="252.313" r="247.688"/>
</g>
<path fill="#FFFFFF" d="M130.098,415.35h246.007c0,0,37.188,0.981,26.703-60.043c0,0,4.752-29.57-80.093-61.046
	c0,0-42.362-8.215-37.397-36.978c0,0,26.895-15.468,38.343-52.656c0,0,32.417-13.372,6.675-51.521c0,0,6.677-60.044-20.027-82.919
	c0,0-31.453-24.779-80.091-18.142c0,0-33.37,5.733-40.055,26.704c0,0-29.55,2.866-20.961,74.358c0,0-27.665,26.723,6.657,53.407
	c0,0,5.723,27.666,38.151,52.483c0,0,10.494,21.896-57.217,42.903c0,0-66.749,23.548-62.94,69.914
	C93.852,371.813,90.043,410.598,130.098,415.35z"/>
</svg>
