<?xml version="1.0" encoding="utf-8"?>
<!-- Generator: Adobe Illustrator 15.0.0, SVG Export Plug-In . SVG Version: 6.00 Build 0)  -->
<!DOCTYPE svg PUBLIC "-//W3C//DTD SVG 1.1//EN" "http://www.w3.org/Graphics/SVG/1.1/DTD/svg11.dtd">
<svg version="1.1" id="Layer_1" xmlns="http://www.w3.org/2000/svg" xmlns:xlink="http://www.w3.org/1999/xlink" x="0px" y="0px"
	 width="500px" height="500px" viewBox="0 0 500 500" enable-background="new 0 0 500 500" xml:space="preserve">
<g>
	<path d="M499.053,250.32c0,137.562-111.502,249.064-249.053,249.064c-137.55,0-249.054-111.503-249.054-249.064
		C0.946,112.771,112.45,1.268,250,1.268C387.551,1.268,499.053,112.771,499.053,250.32z"/>
</g>
<g enable-background="new    ">
	<path fill="#FFFFFF" d="M154.993,260.276c0-12.622,2.562-24.061,7.693-34.325c-9.081-7.49-16.376-16.469-21.897-26.927
		c-5.53-10.449-8.285-21.99-8.285-34.621c0-11.041,2.071-21.398,6.214-31.07c4.143-9.663,9.765-18.143,16.867-25.448
		c7.102-7.296,15.479-13.02,25.152-17.162c9.664-4.143,19.826-6.214,30.479-6.214c7.888,0,15.184,1.184,21.897,3.551
		c6.704,2.367,13.408,5.724,20.122,10.061l57.405-31.958v53.264l-27.815,14.795c2.756,3.162,5.225,7.601,7.398,13.315
		c2.163,5.725,3.254,11.347,3.254,16.867c0,11.05-2.07,21.406-6.213,31.069c-4.143,9.673-9.867,18.152-17.163,25.448
		c-7.306,7.306-15.784,13.02-25.448,17.163c-9.673,4.143-20.029,6.214-31.07,6.214h-2.367c-0.795,0-1.479,1.979-2.071,5.918
		c-0.592,3.948-0.888,7.305-0.888,10.061c0,5.918,0.98,11.244,2.959,15.979h7.693c13.408,0,25.938,1.979,37.58,5.919
		c11.633,3.948,21.796,9.274,30.479,15.979c8.674,6.714,15.48,14.602,20.418,23.673c4.929,9.08,7.397,18.743,7.397,28.998
		c0,10.265-2.469,19.928-7.397,28.999c-4.938,9.081-11.744,16.969-20.418,23.673c-8.683,6.713-18.846,12.039-30.479,15.979
		c-11.642,3.948-24.171,5.918-37.58,5.918c-13.417,0-25.947-1.97-37.58-5.918c-11.642-3.939-21.804-9.266-30.478-15.979
		c-8.683-6.704-15.489-14.592-20.417-23.673c-4.938-9.071-7.398-18.734-7.398-28.999c0-12.622,3.449-24.061,10.357-34.325
		c6.898-10.255,16.275-18.734,28.111-25.447C157.157,281.193,154.993,270.929,154.993,260.276z M213.583,201.688
		c10.255,0,19.03-3.551,26.335-10.653c7.296-7.102,10.949-15.979,10.949-26.631c0-10.255-3.653-19.031-10.949-26.336
		c-7.305-7.296-16.081-10.948-26.335-10.948c-10.264,0-19.04,3.652-26.335,10.948c-7.305,7.305-10.949,16.081-10.949,26.336
		c0,10.652,3.644,19.529,10.949,26.631C194.543,198.137,203.318,201.688,213.583,201.688z M218.909,379.23
		c11.836,0,21.897-2.756,30.183-8.285c8.286-5.521,12.428-12.225,12.428-20.122c0-7.888-4.143-14.693-12.428-20.417
		c-8.286-5.715-18.346-8.581-30.183-8.581c-11.836,0-21.897,2.866-30.182,8.581c-8.286,5.724-12.428,12.529-12.428,20.417
		c0,7.897,4.143,14.602,12.428,20.122C197.012,376.475,207.073,379.23,218.909,379.23z"/>
</g>
<g enable-background="new    ">
	<path fill="#FFFFFF" d="M381.296,125.856v43.004h41.229v18.346h-41.229v43.596h-19.332v-43.596h-41.229V168.86h41.229v-43.004
		H381.296z"/>
</g>
</svg>
