<?xml version="1.0" encoding="utf-8"?>
<!-- Generator: Adobe Illustrator 15.0.0, SVG Export Plug-In . SVG Version: 6.00 Build 0)  -->
<!DOCTYPE svg PUBLIC "-//W3C//DTD SVG 1.1//EN" "http://www.w3.org/Graphics/SVG/1.1/DTD/svg11.dtd">
<svg version="1.1" id="Layer_1" xmlns="http://www.w3.org/2000/svg" xmlns:xlink="http://www.w3.org/1999/xlink" x="0px" y="0px"
	 width="500px" height="500px" viewBox="0 0 500 500" enable-background="new 0 0 500 500" xml:space="preserve">
<g>
	<circle cx="250.313" cy="251.313" r="247.688"/>
</g>
<g>
	<path fill="#FFFFFF" d="M402.024,305.154c0,22.166-17.974,40.117-40.117,40.117H136.135c-22.185,0-40.159-17.951-40.159-40.117
		V126.192c0-22.165,17.974-40.139,40.159-40.139h225.772c22.145,0,40.117,17.975,40.117,40.139V305.154z"/>
	<path fill="#FFFFFF" d="M365.62,404.654c0,14.323-11.614,25.918-25.94,25.918H158.32c-14.303,0-25.896-11.595-25.896-25.918l0,0
		c0-14.323,11.593-25.918,25.896-25.918h181.36C354.006,378.736,365.62,390.331,365.62,404.654L365.62,404.654z"/>
	<path fill="#FFFFFF" d="M284.135,375.38c0,19.412-15.723,35.135-35.113,35.135l0,0c-19.391,0-35.132-15.723-35.132-35.135v-31.755
		c0-19.413,15.742-35.134,35.132-35.134l0,0c19.392,0,35.113,15.721,35.113,35.134V375.38z"/>
	<rect x="126.877" y="114.494" width="248.25" height="193.998"/>
</g>
</svg>
