<?xml version="1.0" encoding="utf-8"?>
<!-- Generator: Adobe Illustrator 15.0.0, SVG Export Plug-In . SVG Version: 6.00 Build 0)  -->
<!DOCTYPE svg PUBLIC "-//W3C//DTD SVG 1.1//EN" "http://www.w3.org/Graphics/SVG/1.1/DTD/svg11.dtd">
<svg version="1.1" id="Layer_1" xmlns="http://www.w3.org/2000/svg" xmlns:xlink="http://www.w3.org/1999/xlink" x="0px" y="0px"
	 width="500px" height="500px" viewBox="0 0 500 500" enable-background="new 0 0 500 500" xml:space="preserve">
<g>
	<path d="M501.164,250.583c0,138.394-112.188,250.582-250.582,250.582C112.188,501.165,0,388.977,0,250.583
		C0,112.188,112.188,0,250.583,0C388.978,0,501.164,112.188,501.164,250.583z"/>
</g>
<g>
	<path fill="#FFFFFF" d="M410.434,368.857c0,21.709-17.6,39.326-39.327,39.326H128.16c-21.709,0-39.328-17.617-39.328-39.326
		V125.912c0-21.709,17.619-39.329,39.328-39.329h242.945c21.729,0,39.327,17.62,39.327,39.329L410.434,368.857L410.434,368.857z"/>
	<rect x="89.077" y="171.131" width="321.621" height="11.804"/>
	<path d="M348.932,247.384c0,54.835-44.463,99.298-99.28,99.298c-54.854,0-99.318-44.463-99.318-99.298s44.464-99.298,99.318-99.298
		C304.469,148.085,348.932,192.549,348.932,247.384z"/>
	<path d="M393.512,147.542c0,4.342-3.526,7.87-7.869,7.87h-33.416c-4.36,0-7.889-3.528-7.889-7.87v-31.478
		c0-4.342,3.527-7.869,7.889-7.869h33.416c4.343,0,7.869,3.527,7.869,7.869V147.542z"/>
	<rect x="157.796" y="86.583" width="11.805" height="61.502"/>
	<rect x="140.1" y="86.583" width="11.785" height="61.502"/>
	<rect x="122.655" y="86.583" width="11.785" height="61.502"/>
	<path stroke="#FFFFFF" stroke-width="4" stroke-miterlimit="10" d="M322.377,247.384c0,40.181-32.563,72.744-72.725,72.744
		c-40.2,0-72.763-32.563-72.763-72.744s32.563-72.744,72.763-72.744C289.814,174.64,322.377,207.203,322.377,247.384z"/>
</g>
</svg>
